<svg width="17" height="8" viewBox="0 0 17 8" fill="none" xmlns="http://www.w3.org/2000/svg">
<path d="M1 3.5C0.723858 3.5 0.5 3.72386 0.5 4C0.5 4.27614 0.723858 4.5 1 4.5L1 3.5ZM16.2568 4.35355C16.452 4.15829 16.452 3.84171 16.2568 3.64645L13.0748 0.464467C12.8795 0.269205 12.563 0.269205 12.3677 0.464467C12.1724 0.659729 12.1724 0.976312 12.3677 1.17157L15.1961 4L12.3677 6.82843C12.1724 7.02369 12.1724 7.34027 12.3677 7.53553C12.563 7.7308 12.8795 7.7308 13.0748 7.53553L16.2568 4.35355ZM1 4.5L15.9032 4.5L15.9032 3.5L1 3.5L1 4.5Z" fill="#FAFAFA"/>
</svg>
