<svg width="151" height="158" viewBox="0 0 151 158" fill="none" xmlns="http://www.w3.org/2000/svg">
<rect x="48" y="21" width="58" height="58" rx="13.5904" fill="#F2F2F2"/>
<path d="M87.0113 48.0239C88.4842 48.9297 88.4842 51.0704 87.0113 51.9762L73.75 60.132C72.2042 61.0826 70.2146 59.9705 70.2146 58.1558L70.2146 41.8443C70.2146 40.0296 72.2042 38.9174 73.75 39.8681L87.0113 48.0239Z" fill="#999999"/>
<path d="M39.8096 121.762C38.9062 120.898 38.4546 119.562 38.4546 117.756C38.4546 115.944 38.9062 114.606 39.8096 113.742C40.7178 112.873 42.0776 112.438 43.8892 112.438H45.5225C46.6309 112.438 47.6099 112.727 48.4595 113.303C49.314 113.879 49.7412 114.667 49.7412 115.668C49.7412 115.957 49.6558 116.164 49.4849 116.291C49.314 116.413 49.1479 116.474 48.9868 116.474H48.1152C47.666 116.474 47.3169 116.206 47.0679 115.668C46.7065 114.897 46.106 114.511 45.2661 114.511H43.9624C42.8931 114.511 42.168 114.741 41.7871 115.2C41.4062 115.659 41.2158 116.508 41.2158 117.749C41.2158 118.989 41.4062 119.841 41.7871 120.305C42.168 120.764 42.8931 120.993 43.9624 120.993H45.4199C46.2598 120.993 46.8579 120.607 47.2144 119.836C47.4634 119.294 47.8149 119.023 48.269 119.023H49.1406C49.3701 119.023 49.5508 119.108 49.6826 119.279C49.8193 119.45 49.8877 119.636 49.8877 119.836C49.8877 120.837 49.4629 121.625 48.6133 122.202C47.7637 122.773 46.7847 123.059 45.6763 123.059H43.8892C42.0776 123.059 40.7178 122.626 39.8096 121.762ZM51.8579 122.092C51.0962 121.389 50.7153 120.354 50.7153 118.986C50.7153 117.614 51.0962 116.579 51.8579 115.881C52.6196 115.178 53.7134 114.826 55.1392 114.826C56.5698 114.826 57.666 115.178 58.4277 115.881C59.1895 116.579 59.5703 117.614 59.5703 118.986C59.5703 120.354 59.1895 121.389 58.4277 122.092C57.666 122.795 56.5698 123.146 55.1392 123.146C53.7134 123.146 52.6196 122.795 51.8579 122.092ZM53.7109 117.082C53.4082 117.478 53.2568 118.11 53.2568 118.979C53.2568 119.848 53.4082 120.483 53.7109 120.883C54.0137 121.284 54.4897 121.484 55.1392 121.484C55.7935 121.484 56.272 121.284 56.5747 120.883C56.8823 120.483 57.0361 119.848 57.0361 118.979C57.0361 118.11 56.8823 117.478 56.5747 117.082C56.272 116.687 55.7935 116.489 55.1392 116.489C54.4897 116.489 54.0137 116.687 53.7109 117.082ZM60.4712 119.104V118.049C60.4712 116.369 60.7666 115.092 61.3574 114.218C61.9482 113.344 62.9541 112.841 64.375 112.709L68.4106 112.351C68.4106 112.351 68.4351 112.351 68.4839 112.351C68.5864 112.351 68.6768 112.375 68.7549 112.424C68.8428 112.507 68.8867 112.607 68.8867 112.724V113.684C68.8867 113.845 68.833 113.996 68.7256 114.138C68.623 114.274 68.4985 114.348 68.3521 114.357L65.2759 114.614C64.2554 114.697 63.5376 114.936 63.1226 115.332C62.7075 115.722 62.5 116.354 62.5 117.229C63.1006 116.384 64.0186 115.961 65.2539 115.961C66.4893 115.961 67.4707 116.274 68.1982 116.899C68.9307 117.524 69.2969 118.413 69.2969 119.565C69.2969 120.717 68.9209 121.604 68.1689 122.224C67.417 122.839 66.3232 123.146 64.8877 123.146C61.9434 123.146 60.4712 121.799 60.4712 119.104ZM64.8804 117.631C64.2847 117.631 63.8232 117.8 63.4961 118.137C63.1738 118.469 63.0127 118.942 63.0127 119.558C63.0127 120.173 63.1738 120.649 63.4961 120.986C63.8232 121.318 64.2847 121.484 64.8804 121.484C65.481 121.484 65.9448 121.318 66.272 120.986C66.5991 120.649 66.7627 120.173 66.7627 119.558C66.7627 118.942 66.5991 118.469 66.272 118.137C65.9448 117.8 65.481 117.631 64.8804 117.631ZM71.2524 122.077C70.5005 121.364 70.1245 120.339 70.1245 119.001C70.1245 117.658 70.5029 116.628 71.2598 115.91C72.0166 115.188 73.0664 114.826 74.4092 114.826C75.752 114.826 76.7993 115.178 77.5513 115.881C78.3032 116.579 78.6792 117.583 78.6792 118.891V119.309C78.6792 119.44 78.6353 119.55 78.5474 119.638C78.4644 119.721 78.3569 119.763 78.2251 119.763H72.71C72.7588 120.363 72.9297 120.8 73.2227 121.074C73.5205 121.347 73.9941 121.484 74.6436 121.484C75.293 121.484 75.7373 121.337 75.9766 121.044C76.2158 120.751 76.5112 120.603 76.8628 120.598H77.9541C78.0859 120.598 78.1934 120.642 78.2764 120.729C78.3643 120.812 78.4082 120.92 78.4082 121.052C78.4082 122.453 77.0728 123.151 74.4019 123.146C73.0542 123.146 72.0044 122.79 71.2524 122.077ZM72.6953 118.217H76.1011C76.0522 117.065 75.4858 116.489 74.4019 116.489C73.3228 116.489 72.7539 117.065 72.6953 118.217ZM80.0269 125.021V115.427C80.0269 115.295 80.0684 115.188 80.1514 115.104C80.2393 115.017 80.3467 114.973 80.4736 114.973H81.8872C82.0142 114.973 82.1191 115.017 82.2021 115.104C82.29 115.188 82.334 115.295 82.334 115.427V115.646C83.1055 115.1 84.0015 114.826 85.022 114.826C86.0425 114.826 86.8945 115.188 87.5781 115.91C88.2617 116.628 88.6035 117.658 88.6035 119.001C88.6035 120.339 88.2495 121.364 87.5415 122.077C86.8335 122.79 85.8789 123.146 84.6777 123.146C84.0576 123.146 83.3521 123.022 82.561 122.773V125.021C82.561 125.153 82.5171 125.261 82.4292 125.344C82.3462 125.432 82.2412 125.476 82.1143 125.476H80.4736C80.3467 125.476 80.2393 125.432 80.1514 125.344C80.0684 125.261 80.0269 125.153 80.0269 125.021ZM82.561 121.081C83.1909 121.281 83.7207 121.381 84.1504 121.381C84.8193 121.381 85.293 121.191 85.5713 120.81C85.8545 120.429 85.9961 119.821 85.9961 118.986C85.9961 118.151 85.8618 117.546 85.5933 117.17C85.3296 116.789 84.9316 116.599 84.3994 116.599C83.8721 116.599 83.2593 116.818 82.561 117.258V121.081ZM89.9585 122.553V115.427C89.9585 115.295 90 115.188 90.083 115.104C90.1709 115.017 90.2783 114.973 90.4053 114.973H91.936C92.0679 114.973 92.1753 115.017 92.2583 115.104C92.3462 115.188 92.3901 115.295 92.3901 115.427V120.239L94.9683 115.5C95.0464 115.349 95.166 115.224 95.3271 115.126C95.4883 115.024 95.6445 114.973 95.7959 114.973H97.8467C97.9785 114.973 98.0859 115.017 98.1689 115.104C98.2568 115.188 98.3008 115.295 98.3008 115.427V122.553C98.3008 122.685 98.2568 122.792 98.1689 122.875C98.0859 122.958 97.9785 123 97.8467 123H96.3159C96.1841 123 96.0767 122.958 95.9937 122.875C95.9106 122.788 95.8691 122.68 95.8691 122.553V117.749L93.291 122.473C93.2129 122.614 93.0933 122.739 92.9321 122.846C92.771 122.949 92.6147 123 92.4634 123H90.4053C90.2734 123 90.166 122.958 90.083 122.875C90 122.792 89.9585 122.685 89.9585 122.553ZM99.3408 116.298V115.427C99.3408 115.295 99.3823 115.188 99.4653 115.104C99.5532 115.017 99.6631 114.973 99.7949 114.973H107.009C107.141 114.973 107.249 115.017 107.332 115.104C107.415 115.188 107.456 115.295 107.456 115.427V116.298C107.456 116.425 107.415 116.533 107.332 116.621C107.249 116.704 107.141 116.745 107.009 116.745H104.673V122.553C104.673 122.68 104.629 122.788 104.541 122.875C104.458 122.958 104.351 123 104.219 123H102.585C102.454 123 102.344 122.958 102.256 122.875C102.173 122.788 102.131 122.68 102.131 122.553V116.745H99.7949C99.6631 116.745 99.5532 116.704 99.4653 116.621C99.3823 116.533 99.3408 116.425 99.3408 116.298ZM109.119 122.077C108.367 121.364 107.991 120.339 107.991 119.001C107.991 117.658 108.369 116.628 109.126 115.91C109.883 115.188 110.933 114.826 112.275 114.826C113.618 114.826 114.666 115.178 115.417 115.881C116.169 116.579 116.545 117.583 116.545 118.891V119.309C116.545 119.44 116.501 119.55 116.414 119.638C116.331 119.721 116.223 119.763 116.091 119.763H110.576C110.625 120.363 110.796 120.8 111.089 121.074C111.387 121.347 111.86 121.484 112.51 121.484C113.159 121.484 113.604 121.337 113.843 121.044C114.082 120.751 114.377 120.603 114.729 120.598H115.82C115.952 120.598 116.06 120.642 116.143 120.729C116.23 120.812 116.274 120.92 116.274 121.052C116.274 122.453 114.939 123.151 112.268 123.146C110.92 123.146 109.871 122.79 109.119 122.077ZM110.562 118.217H113.967C113.918 117.065 113.352 116.489 112.268 116.489C111.189 116.489 110.62 117.065 110.562 118.217ZM17.8516 142.146C16.4844 142.146 15.4199 141.795 14.6582 141.092C13.8965 140.389 13.5156 139.356 13.5156 137.994C13.5156 136.626 13.894 135.591 14.6509 134.888C15.4077 134.18 16.46 133.826 17.8076 133.826C19.1602 133.826 20.1978 134.041 20.9204 134.471C21.6479 134.9 22.0117 135.535 22.0117 136.375C22.0117 136.507 21.9678 136.614 21.8799 136.697C21.7969 136.78 21.6895 136.822 21.5576 136.822H20.4663C20.1343 136.822 19.8535 136.644 19.624 136.287C19.3359 135.828 18.8257 135.599 18.0933 135.599C17.3657 135.599 16.8555 135.787 16.5625 136.163C16.2744 136.534 16.1304 137.142 16.1304 137.986C16.1304 138.831 16.2793 139.441 16.5771 139.817C16.8799 140.193 17.4023 140.381 18.1445 140.381C18.8916 140.381 19.4092 140.152 19.6973 139.693C19.9268 139.332 20.2075 139.151 20.5396 139.151H21.6309C21.7627 139.151 21.8701 139.195 21.9531 139.283C22.041 139.366 22.085 139.471 22.085 139.598C22.085 140.438 21.7212 141.072 20.9937 141.502C20.271 141.932 19.2236 142.146 17.8516 142.146ZM23.2861 141.553V134.427C23.2861 134.295 23.3276 134.188 23.4106 134.104C23.4985 134.017 23.606 133.973 23.7329 133.973H28.1128C29.0454 133.973 29.7998 134.153 30.376 134.515C30.957 134.876 31.2476 135.42 31.2476 136.148C31.2476 136.871 30.9473 137.417 30.3467 137.789C31.2012 138.218 31.6284 138.855 31.6284 139.7C31.6284 140.545 31.3525 141.141 30.8008 141.487C30.249 141.829 29.458 142 28.4277 142H23.7329C23.606 142 23.4985 141.958 23.4106 141.875C23.3276 141.788 23.2861 141.68 23.2861 141.553ZM25.8203 140.367H28.252C28.5205 140.367 28.7256 140.291 28.8672 140.14C29.0137 139.988 29.0869 139.788 29.0869 139.539C29.0869 139.29 29.0137 139.09 28.8672 138.938C28.7256 138.787 28.5205 138.711 28.252 138.711H25.8203V140.367ZM25.8203 137.107H27.9663C28.186 137.107 28.3643 137.039 28.501 136.902C28.6426 136.761 28.7134 136.58 28.7134 136.36C28.7134 136.141 28.6426 135.962 28.501 135.826C28.3643 135.684 28.186 135.613 27.9663 135.613H25.8203V137.107ZM33.5986 141.092C32.8369 140.389 32.4561 139.354 32.4561 137.986C32.4561 136.614 32.8369 135.579 33.5986 134.881C34.3604 134.178 35.4541 133.826 36.8799 133.826C38.3105 133.826 39.4067 134.178 40.1685 134.881C40.9302 135.579 41.311 136.614 41.311 137.986C41.311 139.354 40.9302 140.389 40.1685 141.092C39.4067 141.795 38.3105 142.146 36.8799 142.146C35.4541 142.146 34.3604 141.795 33.5986 141.092ZM35.4517 136.082C35.1489 136.478 34.9976 137.11 34.9976 137.979C34.9976 138.848 35.1489 139.483 35.4517 139.883C35.7544 140.284 36.2305 140.484 36.8799 140.484C37.5342 140.484 38.0127 140.284 38.3154 139.883C38.623 139.483 38.7769 138.848 38.7769 137.979C38.7769 137.11 38.623 136.478 38.3154 136.082C38.0127 135.687 37.5342 135.489 36.8799 135.489C36.2305 135.489 35.7544 135.687 35.4517 136.082ZM42.666 141.553V134.427C42.666 134.295 42.7075 134.188 42.7905 134.104C42.8784 134.017 42.9858 133.973 43.1128 133.973H44.7534C44.8804 133.973 44.9854 134.017 45.0684 134.104C45.1562 134.188 45.2002 134.295 45.2002 134.427V137.049H46.2769C46.4087 135.999 46.8433 135.201 47.5806 134.654C48.3228 134.102 49.3164 133.826 50.5615 133.826C51.8066 133.826 52.8027 134.183 53.5498 134.896C54.3018 135.604 54.6777 136.636 54.6777 137.994C54.6777 139.346 54.3018 140.376 53.5498 141.084C52.8027 141.792 51.8018 142.146 50.5469 142.146C49.292 142.146 48.2935 141.863 47.5513 141.297C46.814 140.726 46.3843 139.9 46.2622 138.821H45.2002V141.553C45.2002 141.68 45.1562 141.788 45.0684 141.875C44.9854 141.958 44.8804 142 44.7534 142H43.1128C42.9858 142 42.8784 141.958 42.7905 141.875C42.7075 141.788 42.666 141.68 42.666 141.553ZM52.1436 137.986C52.1436 136.321 51.5771 135.489 50.4443 135.489C49.3164 135.489 48.7524 136.321 48.7524 137.986C48.7524 139.651 49.3164 140.484 50.4443 140.484C51.5771 140.484 52.1436 139.651 52.1436 137.986ZM69.3921 141.678C69.3921 141.893 69.2651 142 69.0112 142H67.627C67.1582 142 66.7847 141.771 66.5063 141.312L65.5762 139.795C65.1758 139.146 64.5947 138.821 63.833 138.821V141.553C63.833 141.685 63.7891 141.792 63.7012 141.875C63.6182 141.958 63.5132 142 63.3862 142H61.7456C61.6138 142 61.5063 141.958 61.4233 141.875C61.3403 141.792 61.2988 141.685 61.2988 141.553V134.427C61.2988 134.295 61.3403 134.188 61.4233 134.104C61.5112 134.017 61.6187 133.973 61.7456 133.973H63.3862C63.5181 133.973 63.6255 134.017 63.7085 134.104C63.7915 134.188 63.833 134.295 63.833 134.427V137.151C64.6826 137.151 65.2637 136.822 65.5762 136.163L66.2793 134.668C66.377 134.458 66.521 134.29 66.7114 134.163C66.9019 134.036 67.1069 133.973 67.3267 133.973H68.7109C68.9551 133.973 69.0771 134.068 69.0771 134.258C69.0771 134.366 69.0381 134.502 68.96 134.668L68.0151 136.661C67.854 136.993 67.6343 137.278 67.356 137.518C67.0776 137.757 66.7773 137.911 66.4551 137.979C67.0557 138.16 67.5757 138.599 68.0151 139.297L69.2603 141.312C69.3433 141.453 69.3872 141.575 69.3921 141.678ZM69.7217 141.517L71.04 136.192C71.4111 134.712 72.6367 133.973 74.7168 133.973H78.1812C78.3081 133.973 78.4131 134.017 78.4961 134.104C78.584 134.188 78.6279 134.295 78.6279 134.427V141.553C78.6279 141.68 78.584 141.788 78.4961 141.875C78.4131 141.958 78.3081 142 78.1812 142H76.5405C76.4136 142 76.3062 141.958 76.2183 141.875C76.1353 141.788 76.0938 141.68 76.0938 141.553V135.745H74.7168C74.0332 135.745 73.6011 136.104 73.4204 136.822L72.2705 141.458C72.2266 141.619 72.1387 141.751 72.0068 141.854C71.8799 141.951 71.7432 142 71.5967 142H70.0952C69.9634 142 69.8633 141.961 69.7949 141.883C69.7314 141.8 69.6997 141.729 69.6997 141.67C69.6997 141.612 69.707 141.561 69.7217 141.517ZM80.9424 141.473C80.2979 141.023 79.9756 140.389 79.9756 139.568C79.9756 138.748 80.2979 138.118 80.9424 137.679C81.5918 137.239 82.4268 137.02 83.4473 137.02H85.8716C85.8716 136.448 85.752 136.05 85.5127 135.826C85.2734 135.601 84.8535 135.489 84.2529 135.489C83.6572 135.489 83.2373 135.638 82.9932 135.936C82.7539 136.229 82.4585 136.375 82.1069 136.375H81.0156C80.8838 136.375 80.7739 136.333 80.686 136.25C80.603 136.163 80.5615 136.055 80.5615 135.928C80.5615 134.527 81.8921 133.826 84.5532 133.826C85.7153 133.826 86.6479 134.087 87.3511 134.61C88.0542 135.127 88.4058 135.931 88.4058 137.02V141.553C88.4058 141.685 88.3643 141.792 88.2812 141.875C88.1982 141.958 88.0908 142 87.959 142H86.5454C86.4136 142 86.3062 141.958 86.2231 141.875C86.1401 141.788 86.0986 141.68 86.0986 141.553V141.326C85.3271 141.878 84.436 142.151 83.4253 142.146C82.4194 142.146 81.5918 141.922 80.9424 141.473ZM83.623 138.682C83.2812 138.682 83.0103 138.765 82.8101 138.931C82.6147 139.097 82.5171 139.312 82.5171 139.576C82.5171 139.839 82.6196 140.057 82.8247 140.228C83.0298 140.398 83.3203 140.484 83.6963 140.484C84.4482 140.484 85.1733 140.264 85.8716 139.825V138.682H83.623ZM89.4604 141.553V140.682C89.4604 140.55 89.502 140.442 89.585 140.359C89.6729 140.271 89.7827 140.228 89.9146 140.228H90.4858L91.4893 136.192C91.8604 134.712 93.0859 133.973 95.166 133.973H98.4912C98.623 133.973 98.7305 134.017 98.8135 134.104C98.9014 134.188 98.9453 134.295 98.9453 134.427V141.553C98.9453 141.68 98.9014 141.788 98.8135 141.875C98.7305 141.958 98.623 142 98.4912 142H89.9146C89.7827 142 89.6729 141.958 89.585 141.875C89.502 141.788 89.4604 141.68 89.4604 141.553ZM92.8809 140.228H96.4111V135.745H95.0854C94.3774 135.745 93.9282 136.104 93.7378 136.822L92.8809 140.228ZM101.436 141.092C100.674 140.389 100.293 139.354 100.293 137.986C100.293 136.614 100.674 135.579 101.436 134.881C102.197 134.178 103.291 133.826 104.717 133.826C106.147 133.826 107.244 134.178 108.005 134.881C108.767 135.579 109.148 136.614 109.148 137.986C109.148 139.354 108.767 140.389 108.005 141.092C107.244 141.795 106.147 142.146 104.717 142.146C103.291 142.146 102.197 141.795 101.436 141.092ZM103.289 136.082C102.986 136.478 102.834 137.11 102.834 137.979C102.834 138.848 102.986 139.483 103.289 139.883C103.591 140.284 104.067 140.484 104.717 140.484C105.371 140.484 105.85 140.284 106.152 139.883C106.46 139.483 106.614 138.848 106.614 137.979C106.614 137.11 106.46 136.478 106.152 136.082C105.85 135.687 105.371 135.489 104.717 135.489C104.067 135.489 103.591 135.687 103.289 136.082ZM110.503 141.553V134.427C110.503 134.295 110.544 134.188 110.627 134.104C110.715 134.017 110.823 133.973 110.95 133.973H115.33C116.262 133.973 117.017 134.153 117.593 134.515C118.174 134.876 118.464 135.42 118.464 136.148C118.464 136.871 118.164 137.417 117.563 137.789C118.418 138.218 118.845 138.855 118.845 139.7C118.845 140.545 118.569 141.141 118.018 141.487C117.466 141.829 116.675 142 115.645 142H110.95C110.823 142 110.715 141.958 110.627 141.875C110.544 141.788 110.503 141.68 110.503 141.553ZM113.037 140.367H115.469C115.737 140.367 115.942 140.291 116.084 140.14C116.23 139.988 116.304 139.788 116.304 139.539C116.304 139.29 116.23 139.09 116.084 138.938C115.942 138.787 115.737 138.711 115.469 138.711H113.037V140.367ZM113.037 137.107H115.183C115.403 137.107 115.581 137.039 115.718 136.902C115.859 136.761 115.93 136.58 115.93 136.36C115.93 136.141 115.859 135.962 115.718 135.826C115.581 135.684 115.403 135.613 115.183 135.613H113.037V137.107ZM121.541 142.762L122.5 142.886C123.188 142.886 123.669 142.381 123.943 141.37C123.113 141.37 122.419 141.121 121.863 140.623C121.306 140.12 120.828 139.229 120.427 137.95L119.336 134.412C119.321 134.373 119.314 134.329 119.314 134.28C119.314 134.227 119.343 134.163 119.402 134.09C119.465 134.017 119.558 133.978 119.68 133.973H121.211C121.353 133.973 121.487 134.021 121.614 134.119C121.746 134.212 121.831 134.329 121.87 134.471L122.83 137.576C123.069 138.338 123.311 138.865 123.555 139.158C123.804 139.451 124.097 139.598 124.434 139.598L125.891 134.471C125.93 134.329 126.006 134.212 126.118 134.119C126.235 134.021 126.365 133.973 126.506 133.973H128.052C128.174 133.973 128.264 134.012 128.323 134.09C128.381 134.168 128.411 134.234 128.411 134.288C128.411 134.336 128.406 134.378 128.396 134.412L126.477 141.253C126.135 142.464 125.71 143.328 125.203 143.846C124.7 144.363 124.05 144.622 123.254 144.622C122.458 144.622 121.895 144.593 121.562 144.534C121.235 144.476 121.03 144.402 120.947 144.314C120.864 144.231 120.823 144.134 120.823 144.021V143.216C120.823 143.084 120.864 142.974 120.947 142.886C121.03 142.803 121.138 142.762 121.27 142.762H121.541ZM129.458 141.553V134.427C129.458 134.295 129.5 134.188 129.583 134.104C129.67 134.017 129.778 133.973 129.905 133.973H131.545C131.672 133.973 131.777 134.017 131.86 134.104C131.948 134.188 131.992 134.295 131.992 134.427V137.049H133.069C133.201 135.999 133.635 135.201 134.373 134.654C135.115 134.102 136.108 133.826 137.354 133.826C138.599 133.826 139.595 134.183 140.342 134.896C141.094 135.604 141.47 136.636 141.47 137.994C141.47 139.346 141.094 140.376 140.342 141.084C139.595 141.792 138.594 142.146 137.339 142.146C136.084 142.146 135.085 141.863 134.343 141.297C133.606 140.726 133.176 139.9 133.054 138.821H131.992V141.553C131.992 141.68 131.948 141.788 131.86 141.875C131.777 141.958 131.672 142 131.545 142H129.905C129.778 142 129.67 141.958 129.583 141.875C129.5 141.788 129.458 141.68 129.458 141.553ZM138.936 137.986C138.936 136.321 138.369 135.489 137.236 135.489C136.108 135.489 135.544 136.321 135.544 137.986C135.544 139.651 136.108 140.484 137.236 140.484C138.369 140.484 138.936 139.651 138.936 137.986Z" fill="#999999"/>
</svg>
