<svg width="346" height="67" viewBox="0 0 346 67" fill="none" xmlns="http://www.w3.org/2000/svg">
<rect y="0.5" width="346" height="66" rx="7" fill="white"/>
<path d="M15.1562 23.7969V22.8672C15.1562 22.4089 15.3177 22.0026 15.6406 21.6484L20.8047 15.7812C21.0911 15.4635 21.4974 15.3021 22.0234 15.2969H24.4688C24.6823 15.2969 24.862 15.3698 25.0078 15.5156C25.1536 15.6615 25.2266 15.8359 25.2266 16.0391V22.3203H26.0859C26.2995 22.3203 26.4792 22.3932 26.625 22.5391C26.7708 22.6849 26.8438 22.8594 26.8438 23.0625V23.7969C26.8438 24 26.7682 24.1745 26.6172 24.3203C26.4661 24.4609 26.2891 24.5312 26.0859 24.5312H25.2266V25.7656C25.2266 25.9688 25.151 26.1432 25 26.2891C24.849 26.4297 24.6719 26.5 24.4688 26.5H23.0156C22.8125 26.5 22.638 26.4323 22.4922 26.2969C22.3516 26.1562 22.2812 25.9844 22.2812 25.7812V24.5312H15.9141C15.7109 24.5312 15.5339 24.4609 15.3828 24.3203C15.2318 24.1745 15.1562 24 15.1562 23.7969ZM18.2969 22.3203H22.2812V17.7969L18.2969 22.3203ZM27.4844 23.7969C27.4844 23.4844 27.5755 23.263 27.7578 23.1328C27.9401 22.9974 28.1146 22.9297 28.2812 22.9297H29.2109C29.6484 22.9297 29.9974 23.1693 30.2578 23.6484C30.5182 24.1224 31.0755 24.3594 31.9297 24.3594H33.1641C33.8047 24.3594 34.2734 24.2578 34.5703 24.0547C34.8724 23.8516 35.0234 23.5052 35.0234 23.0156C35.0234 22.5208 34.8724 22.1745 34.5703 21.9766C34.2734 21.7734 33.8047 21.6719 33.1641 21.6719H28.6172C28.4141 21.6719 28.2396 21.6016 28.0938 21.4609C27.9531 21.3203 27.8828 21.1484 27.8828 20.9453V16.0391C27.8828 15.8255 27.9531 15.6484 28.0938 15.5078C28.2396 15.3672 28.4141 15.2969 28.6172 15.2969H36.6641C36.8776 15.2969 37.0547 15.3672 37.1953 15.5078C37.3359 15.6484 37.4062 15.8255 37.4062 16.0391V16.7734C37.4062 16.987 37.3359 17.1641 37.1953 17.3047C37.0547 17.4401 36.8776 17.5078 36.6641 17.5078H30.8281V19.4609H33.4375C34.9167 19.4609 36.0391 19.7396 36.8047 20.2969C37.5755 20.849 37.9609 21.7552 37.9609 23.0156C37.9609 24.2708 37.5755 25.1771 36.8047 25.7344C36.0391 26.2865 34.9167 26.5625 33.4375 26.5625H31.6562C30.4844 26.5625 29.4948 26.2995 28.6875 25.7734C27.8854 25.2422 27.4844 24.5833 27.4844 23.7969ZM45.0234 26.0234V18.4219C45.0234 18.2812 45.0677 18.1667 45.1562 18.0781C45.25 17.9844 45.3646 17.9375 45.5 17.9375H48.1875C48.4948 17.9375 48.7292 18.1302 48.8906 18.5156L50.7969 23.1719L52.7031 18.5156C52.8646 18.1302 53.099 17.9375 53.4062 17.9375H56.0938C56.2344 17.9375 56.349 17.9844 56.4375 18.0781C56.5312 18.1667 56.5781 18.2812 56.5781 18.4219V26.0234C56.5781 26.1641 56.5312 26.2786 56.4375 26.3672C56.349 26.4557 56.2344 26.5 56.0938 26.5H54.3984C54.2578 26.5 54.1432 26.4557 54.0547 26.3672C53.9661 26.2734 53.9219 26.1589 53.9219 26.0234V21.1406L51.9219 25.9531C51.7604 26.3177 51.513 26.5 51.1797 26.5H50.4141C50.0859 26.5 49.8411 26.3177 49.6797 25.9531L47.6797 21.1406V26.0234C47.6797 26.1641 47.6328 26.2786 47.5391 26.3672C47.4505 26.4557 47.3359 26.5 47.1953 26.5H45.5C45.3594 26.5 45.2448 26.4557 45.1562 26.3672C45.0677 26.2786 45.0234 26.1641 45.0234 26.0234ZM58.4922 26.0234V18.4219C58.4922 18.2812 58.5365 18.1667 58.625 18.0781C58.7188 17.9844 58.8333 17.9375 58.9688 17.9375H60.6016C60.7422 17.9375 60.8568 17.9844 60.9453 18.0781C61.0391 18.1667 61.0859 18.2812 61.0859 18.4219V23.5547L63.8359 18.5C63.9193 18.3385 64.0469 18.2057 64.2188 18.1016C64.3906 17.9922 64.5573 17.9375 64.7188 17.9375H66.9062C67.0469 17.9375 67.1615 17.9844 67.25 18.0781C67.3438 18.1667 67.3906 18.2812 67.3906 18.4219V26.0234C67.3906 26.1641 67.3438 26.2786 67.25 26.3672C67.1615 26.4557 67.0469 26.5 66.9062 26.5H65.2734C65.1328 26.5 65.0182 26.4557 64.9297 26.3672C64.8411 26.2734 64.7969 26.1589 64.7969 26.0234V20.8984L62.0469 25.9375C61.9635 26.0885 61.8359 26.2214 61.6641 26.3359C61.4922 26.4453 61.3255 26.5 61.1641 26.5H58.9688C58.8281 26.5 58.7135 26.4557 58.625 26.3672C58.5365 26.2786 58.4922 26.1641 58.4922 26.0234ZM69.3047 26.0234V18.4219C69.3047 18.2812 69.349 18.1667 69.4375 18.0781C69.5312 17.9844 69.6458 17.9375 69.7812 17.9375H71.5312C71.6719 17.9375 71.7865 17.9844 71.875 18.0781C71.9635 18.1667 72.0078 18.2812 72.0078 18.4219V21.2188H75.4297V18.4219C75.4297 18.2812 75.474 18.1667 75.5625 18.0781C75.6562 17.9844 75.7734 17.9375 75.9141 17.9375H77.6562C77.7969 17.9375 77.9115 17.9844 78 18.0781C78.0885 18.1667 78.1328 18.2812 78.1328 18.4219V26.0234C78.1328 26.1641 78.0885 26.2786 78 26.3672C77.9115 26.4557 77.7969 26.5 77.6562 26.5H75.9141C75.7734 26.5 75.6562 26.4557 75.5625 26.3672C75.474 26.2734 75.4297 26.1589 75.4297 26.0234V23.1094H72.0078V26.0234C72.0078 26.1641 71.9609 26.2786 71.8672 26.3672C71.7786 26.4557 71.6667 26.5 71.5312 26.5H69.7812C69.6406 26.5 69.526 26.4557 69.4375 26.3672C69.349 26.2786 69.3047 26.1641 69.3047 26.0234ZM81.7188 27.3125L82.7422 27.4453C83.4766 27.4453 83.9896 26.9062 84.2812 25.8281C83.3958 25.8281 82.6562 25.5625 82.0625 25.0312C81.4688 24.4948 80.9583 23.5443 80.5312 22.1797L79.3672 18.4062C79.3516 18.3646 79.3438 18.3177 79.3438 18.2656C79.3438 18.2083 79.375 18.1406 79.4375 18.0625C79.5052 17.9844 79.6042 17.9427 79.7344 17.9375H81.3672C81.5182 17.9375 81.6615 17.9896 81.7969 18.0938C81.9375 18.1927 82.0286 18.3177 82.0703 18.4688L83.0938 21.7812C83.349 22.5938 83.6068 23.1562 83.8672 23.4688C84.1328 23.7812 84.4453 23.9375 84.8047 23.9375L86.3594 18.4688C86.401 18.3177 86.4818 18.1927 86.6016 18.0938C86.7266 17.9896 86.8646 17.9375 87.0156 17.9375H88.6641C88.7943 17.9375 88.8906 17.9792 88.9531 18.0625C89.0156 18.1458 89.0469 18.2161 89.0469 18.2734C89.0469 18.3255 89.0417 18.3698 89.0312 18.4062L86.9844 25.7031C86.6198 26.9948 86.1667 27.9167 85.625 28.4688C85.0885 29.0208 84.3958 29.2969 83.5469 29.2969C82.6979 29.2969 82.0964 29.2656 81.7422 29.2031C81.3932 29.1406 81.1745 29.0625 81.0859 28.9688C80.9974 28.8802 80.9531 28.776 80.9531 28.6562V27.7969C80.9531 27.6562 80.9974 27.5391 81.0859 27.4453C81.1745 27.3568 81.2891 27.3125 81.4297 27.3125H81.7188ZM89.3594 19.3516V18.4219C89.3594 18.2812 89.4036 18.1667 89.4922 18.0781C89.5859 17.9844 89.7031 17.9375 89.8438 17.9375H97.5391C97.6797 17.9375 97.7943 17.9844 97.8828 18.0781C97.9714 18.1667 98.0156 18.2812 98.0156 18.4219V19.3516C98.0156 19.487 97.9714 19.6016 97.8828 19.6953C97.7943 19.7839 97.6797 19.8281 97.5391 19.8281H95.0469V26.0234C95.0469 26.1589 95 26.2734 94.9062 26.3672C94.8177 26.4557 94.7031 26.5 94.5625 26.5H92.8203C92.6797 26.5 92.5625 26.4557 92.4688 26.3672C92.3802 26.2734 92.3359 26.1589 92.3359 26.0234V19.8281H89.8438C89.7031 19.8281 89.5859 19.7839 89.4922 19.6953C89.4036 19.6016 89.3594 19.487 89.3594 19.3516Z" fill="black"/>
<path d="M28.38 53.6C27.8133 53.6 27.3267 53.5033 26.92 53.31C26.5133 53.11 26.2 52.8067 25.98 52.4C25.76 51.9867 25.6367 51.47 25.61 50.85C25.6033 50.5567 25.6 50.2767 25.6 50.01C25.6 49.7367 25.6033 49.4533 25.61 49.16C25.6367 48.5467 25.7633 48.0367 25.99 47.63C26.2233 47.2167 26.5433 46.91 26.95 46.71C27.3633 46.5033 27.84 46.4 28.38 46.4C28.9267 46.4 29.4033 46.5033 29.81 46.71C30.2233 46.91 30.5467 47.2167 30.78 47.63C31.0133 48.0367 31.14 48.5467 31.16 49.16C31.1733 49.4533 31.18 49.7367 31.18 50.01C31.18 50.2767 31.1733 50.5567 31.16 50.85C31.14 51.47 31.0167 51.9867 30.79 52.4C30.57 52.8067 30.2567 53.11 29.85 53.31C29.4433 53.5033 28.9533 53.6 28.38 53.6ZM28.38 52.75C28.8933 52.75 29.31 52.5967 29.63 52.29C29.9567 51.9833 30.1333 51.4867 30.16 50.8C30.1733 50.5 30.18 50.2333 30.18 50C30.18 49.76 30.1733 49.4933 30.16 49.2C30.1467 48.74 30.06 48.3667 29.9 48.08C29.7467 47.7933 29.54 47.5833 29.28 47.45C29.02 47.3167 28.72 47.25 28.38 47.25C28.0533 47.25 27.76 47.3167 27.5 47.45C27.24 47.5833 27.03 47.7933 26.87 48.08C26.7167 48.3667 26.63 48.74 26.61 49.2C26.6033 49.4933 26.6 49.76 26.6 50C26.6 50.2333 26.6033 50.5 26.61 50.8C26.6367 51.4867 26.8133 51.9833 27.14 52.29C27.4667 52.5967 27.88 52.75 28.38 52.75ZM34.7076 53.6C34.1942 53.6 33.7642 53.5033 33.4176 53.31C33.0776 53.11 32.8176 52.83 32.6376 52.47C32.4642 52.1033 32.3709 51.68 32.3576 51.2C32.3509 51 32.3476 50.8 32.3476 50.6C32.3476 50.4 32.3509 50.2 32.3576 50C32.3576 49.3933 32.4076 48.89 32.5076 48.49C32.6076 48.09 32.7576 47.7633 32.9576 47.51C33.1642 47.25 33.4242 47.0367 33.7376 46.87C34.0509 46.7033 34.4209 46.56 34.8476 46.44C35.2742 46.3133 35.7609 46.18 36.3076 46.04C36.3676 46.0267 36.4242 46.0367 36.4776 46.07C36.5376 46.1033 36.5709 46.15 36.5776 46.21L36.6576 46.62C36.6709 46.68 36.6609 46.7333 36.6276 46.78C36.6009 46.8267 36.5576 46.8567 36.4976 46.87C35.9976 46.9967 35.5609 47.1067 35.1876 47.2C34.8142 47.2933 34.5009 47.4033 34.2476 47.53C33.9942 47.65 33.7909 47.8067 33.6376 48C33.4842 48.1933 33.3776 48.45 33.3176 48.77C33.2642 49.09 33.2476 49.5 33.2676 50L33.0476 49.91C33.0809 49.6633 33.1842 49.44 33.3576 49.24C33.5376 49.0333 33.7609 48.8667 34.0276 48.74C34.2942 48.6133 34.5776 48.55 34.8776 48.55C35.3376 48.55 35.7242 48.6467 36.0376 48.84C36.3576 49.0333 36.6009 49.2967 36.7676 49.63C36.9409 49.9633 37.0376 50.3467 37.0576 50.78C37.0709 51.0067 37.0709 51.2033 37.0576 51.37C37.0376 51.8033 36.9376 52.19 36.7576 52.53C36.5776 52.8633 36.3176 53.1267 35.9776 53.32C35.6376 53.5067 35.2142 53.6 34.7076 53.6ZM34.7076 52.86C35.1276 52.86 35.4609 52.73 35.7076 52.47C35.9542 52.21 36.0842 51.83 36.0976 51.33C36.1042 51.2633 36.1076 51.1867 36.1076 51.1C36.1076 51.0133 36.1042 50.9233 36.0976 50.83C36.0842 50.3233 35.9542 49.94 35.7076 49.68C35.4676 49.42 35.1642 49.29 34.7976 49.29C34.3776 49.29 34.0309 49.42 33.7576 49.68C33.4842 49.94 33.3376 50.3233 33.3176 50.83C33.3109 50.9233 33.3076 51.0133 33.3076 51.1C33.3076 51.1867 33.3109 51.2633 33.3176 51.33C33.3376 51.83 33.4709 52.21 33.7176 52.47C33.9642 52.73 34.2942 52.86 34.7076 52.86ZM44.6981 54.76C44.6315 54.76 44.5748 54.74 44.5281 54.7C44.4881 54.66 44.4681 54.6033 44.4681 54.53V53.5H38.5481C38.4815 53.5 38.4248 53.48 38.3781 53.44C38.3381 53.3933 38.3181 53.3367 38.3181 53.27V48.53C38.3181 48.4633 38.3381 48.41 38.3781 48.37C38.4248 48.3233 38.4815 48.3 38.5481 48.3H39.0081C39.0748 48.3 39.1281 48.3233 39.1681 48.37C39.2148 48.41 39.2381 48.4633 39.2381 48.53V52.7H41.0681V48.53C41.0681 48.4633 41.0881 48.41 41.1281 48.37C41.1748 48.3233 41.2315 48.3 41.2981 48.3H41.7181C41.7915 48.3 41.8481 48.3233 41.8881 48.37C41.9281 48.41 41.9481 48.4633 41.9481 48.53V52.7H43.7781V48.53C43.7781 48.4633 43.7981 48.41 43.8381 48.37C43.8848 48.3233 43.9415 48.3 44.0081 48.3H44.4681C44.5348 48.3 44.5881 48.3233 44.6281 48.37C44.6748 48.41 44.6981 48.4633 44.6981 48.53V52.7H45.1781C45.2448 52.7 45.2981 52.7233 45.3381 52.77C45.3781 52.81 45.3981 52.8633 45.3981 52.93V54.53C45.3981 54.6033 45.3781 54.66 45.3381 54.7C45.2981 54.74 45.2448 54.76 45.1781 54.76H44.6981ZM48.5229 53.6C47.8362 53.6 47.2896 53.39 46.8829 52.97C46.4762 52.5433 46.2529 51.9633 46.2129 51.23C46.2062 51.1433 46.2029 51.0333 46.2029 50.9C46.2029 50.76 46.2062 50.6467 46.2129 50.56C46.2396 50.0867 46.3496 49.6733 46.5429 49.32C46.7362 48.96 46.9996 48.6833 47.3329 48.49C47.6729 48.2967 48.0696 48.2 48.5229 48.2C49.0296 48.2 49.4529 48.3067 49.7929 48.52C50.1396 48.7333 50.4029 49.0367 50.5829 49.43C50.7629 49.8233 50.8529 50.2833 50.8529 50.81V50.98C50.8529 51.0533 50.8296 51.11 50.7829 51.15C50.7429 51.19 50.6896 51.21 50.6229 51.21H47.1629C47.1629 51.2167 47.1629 51.23 47.1629 51.25C47.1629 51.27 47.1629 51.2867 47.1629 51.3C47.1762 51.5733 47.2362 51.83 47.3429 52.07C47.4496 52.3033 47.6029 52.4933 47.8029 52.64C48.0029 52.7867 48.2429 52.86 48.5229 52.86C48.7629 52.86 48.9629 52.8233 49.1229 52.75C49.2829 52.6767 49.4129 52.5967 49.5129 52.51C49.6129 52.4167 49.6796 52.3467 49.7129 52.3C49.7729 52.2133 49.8196 52.1633 49.8529 52.15C49.8862 52.13 49.9396 52.12 50.0129 52.12H50.4929C50.5596 52.12 50.6129 52.14 50.6529 52.18C50.6996 52.2133 50.7196 52.2633 50.7129 52.33C50.7062 52.43 50.6529 52.5533 50.5529 52.7C50.4529 52.84 50.3096 52.98 50.1229 53.12C49.9362 53.26 49.7096 53.3767 49.4429 53.47C49.1762 53.5567 48.8696 53.6 48.5229 53.6ZM47.1629 50.52H49.9029V50.49C49.9029 50.19 49.8462 49.9233 49.7329 49.69C49.6262 49.4567 49.4696 49.2733 49.2629 49.14C49.0562 49 48.8096 48.93 48.5229 48.93C48.2362 48.93 47.9896 49 47.7829 49.14C47.5829 49.2733 47.4296 49.4567 47.3229 49.69C47.2162 49.9233 47.1629 50.19 47.1629 50.49V50.52ZM54.1186 53.6C53.4319 53.6 52.8853 53.39 52.4786 52.97C52.0719 52.5433 51.8486 51.9633 51.8086 51.23C51.8019 51.1433 51.7986 51.0333 51.7986 50.9C51.7986 50.76 51.8019 50.6467 51.8086 50.56C51.8353 50.0867 51.9453 49.6733 52.1386 49.32C52.3319 48.96 52.5953 48.6833 52.9286 48.49C53.2686 48.2967 53.6653 48.2 54.1186 48.2C54.6253 48.2 55.0486 48.3067 55.3886 48.52C55.7353 48.7333 55.9986 49.0367 56.1786 49.43C56.3586 49.8233 56.4486 50.2833 56.4486 50.81V50.98C56.4486 51.0533 56.4253 51.11 56.3786 51.15C56.3386 51.19 56.2853 51.21 56.2186 51.21H52.7586C52.7586 51.2167 52.7586 51.23 52.7586 51.25C52.7586 51.27 52.7586 51.2867 52.7586 51.3C52.7719 51.5733 52.8319 51.83 52.9386 52.07C53.0453 52.3033 53.1986 52.4933 53.3986 52.64C53.5986 52.7867 53.8386 52.86 54.1186 52.86C54.3586 52.86 54.5586 52.8233 54.7186 52.75C54.8786 52.6767 55.0086 52.5967 55.1086 52.51C55.2086 52.4167 55.2753 52.3467 55.3086 52.3C55.3686 52.2133 55.4153 52.1633 55.4486 52.15C55.4819 52.13 55.5353 52.12 55.6086 52.12H56.0886C56.1553 52.12 56.2086 52.14 56.2486 52.18C56.2953 52.2133 56.3153 52.2633 56.3086 52.33C56.3019 52.43 56.2486 52.5533 56.1486 52.7C56.0486 52.84 55.9053 52.98 55.7186 53.12C55.5319 53.26 55.3053 53.3767 55.0386 53.47C54.7719 53.5567 54.4653 53.6 54.1186 53.6ZM52.7586 50.52H55.4986V50.49C55.4986 50.19 55.4419 49.9233 55.3286 49.69C55.2219 49.4567 55.0653 49.2733 54.8586 49.14C54.6519 49 54.4053 48.93 54.1186 48.93C53.8319 48.93 53.5853 49 53.3786 49.14C53.1786 49.2733 53.0253 49.4567 52.9186 49.69C52.8119 49.9233 52.7586 50.19 52.7586 50.49V50.52ZM60.3255 53.5C60.2588 53.5 60.2021 53.48 60.1555 53.44C60.1155 53.3933 60.0955 53.3367 60.0955 53.27V48.53C60.0955 48.4633 60.1155 48.41 60.1555 48.37C60.2021 48.3233 60.2588 48.3 60.3255 48.3H62.4055C63.0321 48.3 63.5021 48.4267 63.8155 48.68C64.1355 48.9333 64.2955 49.2733 64.2955 49.7C64.2955 50 64.2388 50.2267 64.1255 50.38C64.0121 50.5333 63.8521 50.6633 63.6455 50.77C63.8988 50.8767 64.0888 51.05 64.2155 51.29C64.3488 51.5233 64.4155 51.7667 64.4155 52.02C64.4155 52.5 64.2455 52.8667 63.9055 53.12C63.5655 53.3733 63.0921 53.5 62.4855 53.5H60.3255ZM61.0155 52.77H62.4055C62.7255 52.77 62.9821 52.71 63.1755 52.59C63.3755 52.4633 63.4755 52.2733 63.4755 52.02C63.4755 51.7533 63.3855 51.56 63.2055 51.44C63.0255 51.3133 62.7588 51.25 62.4055 51.25H61.0155V52.77ZM61.0155 50.51H62.3455C62.6655 50.51 62.9188 50.44 63.1055 50.3C63.2988 50.16 63.3955 49.9633 63.3955 49.71C63.3955 49.45 63.2988 49.2733 63.1055 49.18C62.9188 49.08 62.6655 49.03 62.3455 49.03H61.0155V50.51ZM65.9409 55.4C65.8743 55.4 65.8176 55.3767 65.7709 55.33C65.7309 55.29 65.7109 55.2367 65.7109 55.17V48.53C65.7109 48.4633 65.7309 48.41 65.7709 48.37C65.8176 48.3233 65.8743 48.3 65.9409 48.3H66.4009C66.4676 48.3 66.5209 48.3233 66.5609 48.37C66.6076 48.41 66.6309 48.4633 66.6309 48.53V48.97C66.7909 48.75 67.0043 48.5667 67.2709 48.42C67.5376 48.2733 67.8709 48.2 68.2709 48.2C68.6443 48.2 68.9609 48.2633 69.2209 48.39C69.4876 48.5167 69.7043 48.69 69.8709 48.91C70.0443 49.13 70.1743 49.38 70.2609 49.66C70.3476 49.94 70.3943 50.24 70.4009 50.56C70.4076 50.6667 70.4109 50.78 70.4109 50.9C70.4109 51.02 70.4076 51.1333 70.4009 51.24C70.3943 51.5533 70.3476 51.8533 70.2609 52.14C70.1743 52.42 70.0443 52.67 69.8709 52.89C69.7043 53.1033 69.4876 53.2767 69.2209 53.41C68.9609 53.5367 68.6443 53.6 68.2709 53.6C67.8843 53.6 67.5576 53.53 67.2909 53.39C67.0309 53.2433 66.8176 53.0633 66.6509 52.85V55.17C66.6509 55.2367 66.6309 55.29 66.5909 55.33C66.5509 55.3767 66.4943 55.4 66.4209 55.4H65.9409ZM68.0609 52.79C68.4076 52.79 68.6776 52.7167 68.8709 52.57C69.0709 52.4167 69.2143 52.22 69.3009 51.98C69.3876 51.7333 69.4376 51.47 69.4509 51.19C69.4576 50.9967 69.4576 50.8033 69.4509 50.61C69.4376 50.33 69.3876 50.07 69.3009 49.83C69.2143 49.5833 69.0709 49.3867 68.8709 49.24C68.6776 49.0867 68.4076 49.01 68.0609 49.01C67.7343 49.01 67.4676 49.0867 67.2609 49.24C67.0609 49.3933 66.9109 49.59 66.8109 49.83C66.7176 50.0633 66.6643 50.3033 66.6509 50.55C66.6443 50.6567 66.6409 50.7833 66.6409 50.93C66.6409 51.0767 66.6443 51.2067 66.6509 51.32C66.6576 51.5533 66.7109 51.7833 66.8109 52.01C66.9176 52.2367 67.0743 52.4233 67.2809 52.57C67.4876 52.7167 67.7476 52.79 68.0609 52.79ZM73.728 53.6C73.0413 53.6 72.4946 53.39 72.088 52.97C71.6813 52.5433 71.458 51.9633 71.418 51.23C71.4113 51.1433 71.408 51.0333 71.408 50.9C71.408 50.76 71.4113 50.6467 71.418 50.56C71.4446 50.0867 71.5546 49.6733 71.748 49.32C71.9413 48.96 72.2046 48.6833 72.538 48.49C72.878 48.2967 73.2746 48.2 73.728 48.2C74.2346 48.2 74.658 48.3067 74.998 48.52C75.3446 48.7333 75.608 49.0367 75.788 49.43C75.968 49.8233 76.058 50.2833 76.058 50.81V50.98C76.058 51.0533 76.0346 51.11 75.988 51.15C75.948 51.19 75.8946 51.21 75.828 51.21H72.368C72.368 51.2167 72.368 51.23 72.368 51.25C72.368 51.27 72.368 51.2867 72.368 51.3C72.3813 51.5733 72.4413 51.83 72.548 52.07C72.6546 52.3033 72.808 52.4933 73.008 52.64C73.208 52.7867 73.448 52.86 73.728 52.86C73.968 52.86 74.168 52.8233 74.328 52.75C74.488 52.6767 74.618 52.5967 74.718 52.51C74.818 52.4167 74.8846 52.3467 74.918 52.3C74.978 52.2133 75.0246 52.1633 75.058 52.15C75.0913 52.13 75.1446 52.12 75.218 52.12H75.698C75.7646 52.12 75.818 52.14 75.858 52.18C75.9046 52.2133 75.9246 52.2633 75.918 52.33C75.9113 52.43 75.858 52.5533 75.758 52.7C75.658 52.84 75.5146 52.98 75.328 53.12C75.1413 53.26 74.9146 53.3767 74.648 53.47C74.3813 53.5567 74.0746 53.6 73.728 53.6ZM72.368 50.52H75.108V50.49C75.108 50.19 75.0513 49.9233 74.938 49.69C74.8313 49.4567 74.6746 49.2733 74.468 49.14C74.2613 49 74.0146 48.93 73.728 48.93C73.4413 48.93 73.1946 49 72.988 49.14C72.788 49.2733 72.6346 49.4567 72.528 49.69C72.4213 49.9233 72.368 50.19 72.368 50.49V50.52ZM77.4737 53.5C77.407 53.5 77.3537 53.48 77.3137 53.44C77.2737 53.4 77.2537 53.3467 77.2537 53.28V48.49C77.2537 48.4367 77.2737 48.3933 77.3137 48.36C77.3603 48.32 77.407 48.3 77.4537 48.3H77.9637C78.0703 48.3 78.1537 48.3533 78.2137 48.46L79.9137 51.64L81.6237 48.46C81.6837 48.3533 81.767 48.3 81.8737 48.3H82.3737C82.427 48.3 82.4737 48.32 82.5137 48.36C82.5537 48.3933 82.5737 48.4367 82.5737 48.49V53.28C82.5737 53.3467 82.5537 53.4 82.5137 53.44C82.4737 53.48 82.4237 53.5 82.3637 53.5H81.8737C81.807 53.5 81.7537 53.48 81.7137 53.44C81.6737 53.4 81.6537 53.3467 81.6537 53.28V49.29L82.0037 49.33L80.3737 52.41C80.3403 52.4767 80.3003 52.5367 80.2537 52.59C80.207 52.6433 80.137 52.67 80.0437 52.67H79.7837C79.697 52.67 79.6303 52.6433 79.5837 52.59C79.537 52.5367 79.4937 52.4767 79.4537 52.41L77.8737 49.48L78.1837 49.45V53.28C78.1837 53.3467 78.1637 53.4 78.1237 53.44C78.0837 53.48 78.0303 53.5 77.9637 53.5H77.4737ZM87.3101 53.5C87.2367 53.5 87.1801 53.48 87.1401 53.44C87.1001 53.3933 87.0801 53.3367 87.0801 53.27V51.64H85.9301V51.59C85.3034 51.59 84.8367 51.4367 84.5301 51.13C84.2301 50.8167 84.0801 50.42 84.0801 49.94C84.0801 49.38 84.2434 48.9667 84.5701 48.7C84.9034 48.4333 85.4034 48.3 86.0701 48.3H87.7901C87.8567 48.3 87.9101 48.3233 87.9501 48.37C87.9967 48.41 88.0201 48.4633 88.0201 48.53V53.27C88.0201 53.3367 87.9967 53.3933 87.9501 53.44C87.9101 53.48 87.8567 53.5 87.7901 53.5H87.3101ZM84.1401 53.5C84.0801 53.5 84.0301 53.48 83.9901 53.44C83.9501 53.4 83.9301 53.3533 83.9301 53.3C83.9301 53.2733 83.9334 53.2467 83.9401 53.22C83.9534 53.1867 83.9734 53.1533 84.0001 53.12L85.1901 51.36L86.1501 51.43L84.8801 53.35C84.8534 53.3833 84.8167 53.4167 84.7701 53.45C84.7234 53.4833 84.6734 53.5 84.6201 53.5H84.1401ZM85.9601 50.89H87.0901V49.05H86.0401C85.6667 49.05 85.3901 49.1167 85.2101 49.25C85.0367 49.3767 84.9501 49.6067 84.9501 49.94C84.9501 50.2133 85.0301 50.44 85.1901 50.62C85.3567 50.8 85.6134 50.89 85.9601 50.89Z" fill="#999999"/>
<path d="M158 14.5H155V13.5C155 13.2348 154.895 12.9804 154.707 12.7929C154.52 12.6054 154.265 12.5 154 12.5H144C143.735 12.5 143.48 12.6054 143.293 12.7929C143.105 12.9804 143 13.2348 143 13.5V14.5H140C139.735 14.5 139.48 14.6054 139.293 14.7929C139.105 14.9804 139 15.2348 139 15.5V18.5C139 19.5609 139.421 20.5783 140.172 21.3284C140.922 22.0786 141.939 22.5 143 22.5H144.54C145.445 23.5091 146.664 24.1824 148 24.41V26.5H147C146.204 26.5 145.441 26.8161 144.879 27.3787C144.316 27.9413 144 28.7044 144 29.5V31.5C144 31.7652 144.105 32.0196 144.293 32.2071C144.48 32.3946 144.735 32.5 145 32.5H153C153.265 32.5 153.52 32.3946 153.707 32.2071C153.895 32.0196 154 31.7652 154 31.5V29.5C154 28.7044 153.684 27.9413 153.121 27.3787C152.559 26.8161 151.796 26.5 151 26.5H150V24.41C151.336 24.1824 152.555 23.5091 153.46 22.5H155C156.061 22.5 157.078 22.0786 157.828 21.3284C158.579 20.5783 159 19.5609 159 18.5V15.5C159 15.2348 158.895 14.9804 158.707 14.7929C158.52 14.6054 158.265 14.5 158 14.5ZM143 20.5C142.47 20.5 141.961 20.2893 141.586 19.9142C141.211 19.5391 141 19.0304 141 18.5V16.5H143V18.5C143.002 19.1817 143.121 19.8581 143.35 20.5H143ZM151 28.5C151.265 28.5 151.52 28.6054 151.707 28.7929C151.895 28.9804 152 29.2348 152 29.5V30.5H146V29.5C146 29.2348 146.105 28.9804 146.293 28.7929C146.48 28.6054 146.735 28.5 147 28.5H151ZM153 18.5C153 19.5609 152.579 20.5783 151.828 21.3284C151.078 22.0786 150.061 22.5 149 22.5C147.939 22.5 146.922 22.0786 146.172 21.3284C145.421 20.5783 145 19.5609 145 18.5V14.5H153V18.5ZM157 18.5C157 19.0304 156.789 19.5391 156.414 19.9142C156.039 20.2893 155.53 20.5 155 20.5H154.65C154.879 19.8581 154.998 19.1817 155 18.5V16.5H157V18.5Z" fill="#F7B801"/>
<path d="M184 14.5H181V13.5C181 13.2348 180.895 12.9804 180.707 12.7929C180.52 12.6054 180.265 12.5 180 12.5H170C169.735 12.5 169.48 12.6054 169.293 12.7929C169.105 12.9804 169 13.2348 169 13.5V14.5H166C165.735 14.5 165.48 14.6054 165.293 14.7929C165.105 14.9804 165 15.2348 165 15.5V18.5C165 19.5609 165.421 20.5783 166.172 21.3284C166.922 22.0786 167.939 22.5 169 22.5H170.54C171.445 23.5091 172.664 24.1824 174 24.41V26.5H173C172.204 26.5 171.441 26.8161 170.879 27.3787C170.316 27.9413 170 28.7044 170 29.5V31.5C170 31.7652 170.105 32.0196 170.293 32.2071C170.48 32.3946 170.735 32.5 171 32.5H179C179.265 32.5 179.52 32.3946 179.707 32.2071C179.895 32.0196 180 31.7652 180 31.5V29.5C180 28.7044 179.684 27.9413 179.121 27.3787C178.559 26.8161 177.796 26.5 177 26.5H176V24.41C177.336 24.1824 178.555 23.5091 179.46 22.5H181C182.061 22.5 183.078 22.0786 183.828 21.3284C184.579 20.5783 185 19.5609 185 18.5V15.5C185 15.2348 184.895 14.9804 184.707 14.7929C184.52 14.6054 184.265 14.5 184 14.5ZM169 20.5C168.47 20.5 167.961 20.2893 167.586 19.9142C167.211 19.5391 167 19.0304 167 18.5V16.5H169V18.5C169.002 19.1817 169.121 19.8581 169.35 20.5H169ZM177 28.5C177.265 28.5 177.52 28.6054 177.707 28.7929C177.895 28.9804 178 29.2348 178 29.5V30.5H172V29.5C172 29.2348 172.105 28.9804 172.293 28.7929C172.48 28.6054 172.735 28.5 173 28.5H177ZM179 18.5C179 19.5609 178.579 20.5783 177.828 21.3284C177.078 22.0786 176.061 22.5 175 22.5C173.939 22.5 172.922 22.0786 172.172 21.3284C171.421 20.5783 171 19.5609 171 18.5V14.5H179V18.5ZM183 18.5C183 19.0304 182.789 19.5391 182.414 19.9142C182.039 20.2893 181.53 20.5 181 20.5H180.65C180.879 19.8581 180.998 19.1817 181 18.5V16.5H183V18.5Z" fill="#E6E6E6"/>
<path d="M210 14.5H207V13.5C207 13.2348 206.895 12.9804 206.707 12.7929C206.52 12.6054 206.265 12.5 206 12.5H196C195.735 12.5 195.48 12.6054 195.293 12.7929C195.105 12.9804 195 13.2348 195 13.5V14.5H192C191.735 14.5 191.48 14.6054 191.293 14.7929C191.105 14.9804 191 15.2348 191 15.5V18.5C191 19.5609 191.421 20.5783 192.172 21.3284C192.922 22.0786 193.939 22.5 195 22.5H196.54C197.445 23.5091 198.664 24.1824 200 24.41V26.5H199C198.204 26.5 197.441 26.8161 196.879 27.3787C196.316 27.9413 196 28.7044 196 29.5V31.5C196 31.7652 196.105 32.0196 196.293 32.2071C196.48 32.3946 196.735 32.5 197 32.5H205C205.265 32.5 205.52 32.3946 205.707 32.2071C205.895 32.0196 206 31.7652 206 31.5V29.5C206 28.7044 205.684 27.9413 205.121 27.3787C204.559 26.8161 203.796 26.5 203 26.5H202V24.41C203.336 24.1824 204.555 23.5091 205.46 22.5H207C208.061 22.5 209.078 22.0786 209.828 21.3284C210.579 20.5783 211 19.5609 211 18.5V15.5C211 15.2348 210.895 14.9804 210.707 14.7929C210.52 14.6054 210.265 14.5 210 14.5ZM195 20.5C194.47 20.5 193.961 20.2893 193.586 19.9142C193.211 19.5391 193 19.0304 193 18.5V16.5H195V18.5C195.002 19.1817 195.121 19.8581 195.35 20.5H195ZM203 28.5C203.265 28.5 203.52 28.6054 203.707 28.7929C203.895 28.9804 204 29.2348 204 29.5V30.5H198V29.5C198 29.2348 198.105 28.9804 198.293 28.7929C198.48 28.6054 198.735 28.5 199 28.5H203ZM205 18.5C205 19.5609 204.579 20.5783 203.828 21.3284C203.078 22.0786 202.061 22.5 201 22.5C199.939 22.5 198.922 22.0786 198.172 21.3284C197.421 20.5783 197 19.5609 197 18.5V14.5H205V18.5ZM209 18.5C209 19.0304 208.789 19.5391 208.414 19.9142C208.039 20.2893 207.53 20.5 207 20.5H206.65C206.879 19.8581 206.998 19.1817 207 18.5V16.5H209V18.5Z" fill="#E6E6E6"/>
<path d="M151.39 53.6C150.777 53.6 150.267 53.4867 149.86 53.26C149.46 53.0333 149.157 52.7167 148.95 52.31C148.743 51.9033 148.63 51.43 148.61 50.89C148.603 50.6167 148.6 50.3233 148.6 50.01C148.6 49.6967 148.603 49.3967 148.61 49.11C148.63 48.57 148.743 48.0967 148.95 47.69C149.157 47.2833 149.46 46.9667 149.86 46.74C150.267 46.5133 150.777 46.4 151.39 46.4C151.85 46.4 152.253 46.4633 152.6 46.59C152.947 46.7167 153.233 46.8867 153.46 47.1C153.693 47.3133 153.87 47.5533 153.99 47.82C154.11 48.08 154.177 48.35 154.19 48.63C154.197 48.69 154.177 48.74 154.13 48.78C154.09 48.82 154.04 48.84 153.98 48.84H153.43C153.37 48.84 153.317 48.8233 153.27 48.79C153.23 48.7567 153.2 48.6967 153.18 48.61C153.067 48.09 152.853 47.7333 152.54 47.54C152.233 47.3467 151.847 47.25 151.38 47.25C150.847 47.25 150.423 47.4033 150.11 47.71C149.797 48.01 149.627 48.4933 149.6 49.16C149.58 49.7067 149.58 50.2667 149.6 50.84C149.627 51.5067 149.797 51.9933 150.11 52.3C150.423 52.6 150.847 52.75 151.38 52.75C151.847 52.75 152.233 52.6533 152.54 52.46C152.853 52.2667 153.067 51.91 153.18 51.39C153.2 51.3033 153.23 51.2433 153.27 51.21C153.317 51.1767 153.37 51.16 153.43 51.16H153.98C154.04 51.16 154.09 51.18 154.13 51.22C154.177 51.26 154.197 51.31 154.19 51.37C154.177 51.65 154.11 51.9233 153.99 52.19C153.87 52.45 153.693 52.6867 153.46 52.9C153.233 53.1133 152.947 53.2833 152.6 53.41C152.253 53.5367 151.85 53.6 151.39 53.6ZM155.15 53.5C155.083 53.5 155.027 53.4767 154.98 53.43C154.933 53.3833 154.91 53.3267 154.91 53.26V52.89C154.91 52.75 154.98 52.6767 155.12 52.67C155.327 52.6633 155.5 52.5667 155.64 52.38C155.78 52.1867 155.887 51.8833 155.96 51.47C156.033 51.05 156.07 50.4967 156.07 49.81V48.53C156.07 48.4633 156.09 48.41 156.13 48.37C156.177 48.3233 156.233 48.3 156.3 48.3H159.48C159.547 48.3 159.6 48.3233 159.64 48.37C159.687 48.41 159.71 48.4633 159.71 48.53V53.27C159.71 53.3367 159.687 53.3933 159.64 53.44C159.6 53.48 159.547 53.5 159.48 53.5H159C158.933 53.5 158.88 53.48 158.84 53.44C158.8 53.3933 158.78 53.3367 158.78 53.27V49.1H156.98V49.92C156.98 50.56 156.943 51.11 156.87 51.57C156.797 52.0233 156.683 52.3933 156.53 52.68C156.383 52.96 156.193 53.1667 155.96 53.3C155.733 53.4333 155.463 53.5 155.15 53.5ZM163.331 53.6C162.824 53.6 162.401 53.5033 162.061 53.31C161.721 53.1167 161.461 52.85 161.281 52.51C161.101 52.1633 161.001 51.77 160.981 51.33C160.974 51.2167 160.971 51.0733 160.971 50.9C160.971 50.72 160.974 50.5767 160.981 50.47C161.001 50.0233 161.101 49.63 161.281 49.29C161.468 48.95 161.731 48.6833 162.071 48.49C162.411 48.2967 162.831 48.2 163.331 48.2C163.831 48.2 164.251 48.2967 164.591 48.49C164.931 48.6833 165.191 48.95 165.371 49.29C165.558 49.63 165.661 50.0233 165.681 50.47C165.688 50.5767 165.691 50.72 165.691 50.9C165.691 51.0733 165.688 51.2167 165.681 51.33C165.661 51.77 165.561 52.1633 165.381 52.51C165.201 52.85 164.941 53.1167 164.601 53.31C164.261 53.5033 163.838 53.6 163.331 53.6ZM163.331 52.83C163.744 52.83 164.074 52.7 164.321 52.44C164.568 52.1733 164.701 51.7867 164.721 51.28C164.728 51.18 164.731 51.0533 164.731 50.9C164.731 50.7467 164.728 50.62 164.721 50.52C164.701 50.0133 164.568 49.63 164.321 49.37C164.074 49.1033 163.744 48.97 163.331 48.97C162.918 48.97 162.584 49.1033 162.331 49.37C162.084 49.63 161.954 50.0133 161.941 50.52C161.934 50.62 161.931 50.7467 161.931 50.9C161.931 51.0533 161.934 51.18 161.941 51.28C161.954 51.7867 162.084 52.1733 162.331 52.44C162.584 52.7 162.918 52.83 163.331 52.83ZM166.633 53.5C166.573 53.5 166.523 53.4867 166.483 53.46C166.45 53.4333 166.433 53.3933 166.433 53.34C166.433 53.3067 166.45 53.2633 166.483 53.21L168.193 50.78L166.683 48.58C166.67 48.56 166.66 48.54 166.653 48.52C166.646 48.4933 166.643 48.4733 166.643 48.46C166.643 48.4067 166.66 48.3667 166.693 48.34C166.733 48.3133 166.783 48.3 166.843 48.3H167.363C167.43 48.3 167.483 48.3133 167.523 48.34C167.563 48.3667 167.6 48.4033 167.633 48.45L168.983 50.45H169.743V48.53C169.743 48.4633 169.763 48.41 169.803 48.37C169.85 48.3233 169.906 48.3 169.973 48.3H170.433C170.506 48.3 170.563 48.3233 170.603 48.37C170.643 48.41 170.663 48.4633 170.663 48.53V50.45H171.393L172.763 48.45C172.79 48.4033 172.823 48.3667 172.863 48.34C172.91 48.3133 172.963 48.3 173.023 48.3H173.553C173.613 48.3 173.66 48.3133 173.693 48.34C173.733 48.3667 173.753 48.4067 173.753 48.46C173.753 48.4733 173.746 48.4933 173.733 48.52C173.726 48.54 173.716 48.56 173.703 48.58L172.203 50.78L173.913 53.21C173.94 53.25 173.953 53.2933 173.953 53.34C173.953 53.3933 173.936 53.4333 173.903 53.46C173.87 53.4867 173.82 53.5 173.753 53.5H173.153C173.086 53.5 173.03 53.4867 172.983 53.46C172.943 53.4333 172.91 53.3967 172.883 53.35L171.423 51.25H170.663V53.27C170.663 53.3367 170.643 53.3933 170.603 53.44C170.563 53.48 170.506 53.5 170.433 53.5H169.973C169.906 53.5 169.85 53.48 169.803 53.44C169.763 53.3933 169.743 53.3367 169.743 53.27V51.25H168.983L167.503 53.35C167.483 53.3967 167.45 53.4333 167.403 53.46C167.363 53.4867 167.31 53.5 167.243 53.5H166.633ZM175.152 53.5C175.085 53.5 175.028 53.48 174.982 53.44C174.942 53.3933 174.922 53.3367 174.922 53.27V48.53C174.922 48.4633 174.942 48.41 174.982 48.37C175.028 48.3233 175.085 48.3 175.152 48.3H175.632C175.698 48.3 175.752 48.3233 175.792 48.37C175.832 48.41 175.852 48.4633 175.852 48.53V50.45H178.582V48.53C178.582 48.4633 178.602 48.41 178.642 48.37C178.688 48.3233 178.745 48.3 178.812 48.3H179.282C179.348 48.3 179.402 48.3233 179.442 48.37C179.488 48.41 179.512 48.4633 179.512 48.53V53.27C179.512 53.3367 179.488 53.3933 179.442 53.44C179.402 53.48 179.348 53.5 179.282 53.5H178.812C178.745 53.5 178.688 53.48 178.642 53.44C178.602 53.3933 178.582 53.3367 178.582 53.27V51.25H175.852V53.27C175.852 53.3367 175.832 53.3933 175.792 53.44C175.752 53.48 175.698 53.5 175.632 53.5H175.152ZM183.145 53.6C182.639 53.6 182.215 53.5033 181.875 53.31C181.535 53.1167 181.275 52.85 181.095 52.51C180.915 52.1633 180.815 51.77 180.795 51.33C180.789 51.2167 180.785 51.0733 180.785 50.9C180.785 50.72 180.789 50.5767 180.795 50.47C180.815 50.0233 180.915 49.63 181.095 49.29C181.282 48.95 181.545 48.6833 181.885 48.49C182.225 48.2967 182.645 48.2 183.145 48.2C183.645 48.2 184.065 48.2967 184.405 48.49C184.745 48.6833 185.005 48.95 185.185 49.29C185.372 49.63 185.475 50.0233 185.495 50.47C185.502 50.5767 185.505 50.72 185.505 50.9C185.505 51.0733 185.502 51.2167 185.495 51.33C185.475 51.77 185.375 52.1633 185.195 52.51C185.015 52.85 184.755 53.1167 184.415 53.31C184.075 53.5033 183.652 53.6 183.145 53.6ZM183.145 52.83C183.559 52.83 183.889 52.7 184.135 52.44C184.382 52.1733 184.515 51.7867 184.535 51.28C184.542 51.18 184.545 51.0533 184.545 50.9C184.545 50.7467 184.542 50.62 184.535 50.52C184.515 50.0133 184.382 49.63 184.135 49.37C183.889 49.1033 183.559 48.97 183.145 48.97C182.732 48.97 182.399 49.1033 182.145 49.37C181.899 49.63 181.769 50.0133 181.755 50.52C181.749 50.62 181.745 50.7467 181.745 50.9C181.745 51.0533 181.749 51.18 181.755 51.28C181.769 51.7867 181.899 52.1733 182.145 52.44C182.399 52.7 182.732 52.83 183.145 52.83ZM188.858 53.6C188.384 53.6 187.974 53.51 187.628 53.33C187.288 53.1433 187.024 52.88 186.838 52.54C186.651 52.1933 186.551 51.78 186.538 51.3C186.531 51.2 186.528 51.0667 186.528 50.9C186.528 50.7333 186.531 50.6 186.538 50.5C186.551 50.02 186.651 49.61 186.838 49.27C187.024 48.9233 187.288 48.66 187.628 48.48C187.974 48.2933 188.384 48.2 188.858 48.2C189.244 48.2 189.574 48.2533 189.848 48.36C190.128 48.4667 190.358 48.6033 190.538 48.77C190.718 48.9367 190.851 49.1167 190.938 49.31C191.031 49.5033 191.081 49.6867 191.088 49.86C191.094 49.9267 191.074 49.98 191.028 50.02C190.981 50.06 190.924 50.08 190.858 50.08H190.378C190.311 50.08 190.261 50.0667 190.228 50.04C190.194 50.0067 190.161 49.9533 190.128 49.88C190.008 49.5533 189.844 49.3233 189.638 49.19C189.431 49.0567 189.174 48.99 188.868 48.99C188.468 48.99 188.141 49.1133 187.888 49.36C187.641 49.6067 187.508 50.0033 187.488 50.55C187.481 50.79 187.481 51.0233 187.488 51.25C187.508 51.8033 187.641 52.2033 187.888 52.45C188.141 52.69 188.468 52.81 188.868 52.81C189.174 52.81 189.431 52.7433 189.638 52.61C189.844 52.4767 190.008 52.2467 190.128 51.92C190.161 51.8467 190.194 51.7967 190.228 51.77C190.261 51.7367 190.311 51.72 190.378 51.72H190.858C190.924 51.72 190.981 51.74 191.028 51.78C191.074 51.82 191.094 51.8733 191.088 51.94C191.081 52.08 191.051 52.2233 190.998 52.37C190.944 52.5167 190.858 52.6667 190.738 52.82C190.624 52.9667 190.481 53.1 190.308 53.22C190.134 53.3333 189.924 53.4267 189.678 53.5C189.438 53.5667 189.164 53.6 188.858 53.6ZM193.865 53.5C193.798 53.5 193.742 53.48 193.695 53.44C193.655 53.3933 193.635 53.3367 193.635 53.27V49.1H191.895C191.828 49.1 191.772 49.08 191.725 49.04C191.685 48.9933 191.665 48.9367 191.665 48.87V48.53C191.665 48.4633 191.685 48.41 191.725 48.37C191.772 48.3233 191.828 48.3 191.895 48.3H196.295C196.362 48.3 196.415 48.3233 196.455 48.37C196.502 48.41 196.525 48.4633 196.525 48.53V48.87C196.525 48.9367 196.502 48.9933 196.455 49.04C196.415 49.08 196.362 49.1 196.295 49.1H194.555V53.27C194.555 53.3367 194.535 53.3933 194.495 53.44C194.455 53.48 194.398 53.5 194.325 53.5H193.865ZM197.622 53.5C197.556 53.5 197.499 53.48 197.452 53.44C197.412 53.3933 197.392 53.3367 197.392 53.27V48.53C197.392 48.4633 197.412 48.41 197.452 48.37C197.499 48.3233 197.556 48.3 197.622 48.3H198.102C198.169 48.3 198.222 48.3233 198.262 48.37C198.309 48.41 198.332 48.4633 198.332 48.53V50H199.452C200.132 50 200.629 50.16 200.942 50.48C201.256 50.8 201.412 51.2333 201.412 51.78C201.412 52.3667 201.239 52.8 200.892 53.08C200.546 53.36 200.026 53.5 199.332 53.5H197.622ZM198.322 52.75H199.372C199.772 52.75 200.066 52.68 200.252 52.54C200.439 52.3933 200.532 52.14 200.532 51.78C200.532 51.4333 200.442 51.1767 200.262 51.01C200.082 50.8367 199.786 50.75 199.372 50.75H198.322V52.75Z" fill="#999999"/>
<path d="M251.398 23.4453C251.398 23.1328 251.49 22.9115 251.672 22.7812C251.854 22.6458 252.031 22.5781 252.203 22.5781H253.125C253.609 22.5781 253.99 22.875 254.266 23.4688C254.542 24.0625 255.177 24.3594 256.172 24.3594H257.289C257.93 24.3594 258.398 24.2682 258.695 24.0859C258.992 23.9036 259.141 23.5938 259.141 23.1562C259.141 22.7188 258.992 22.4089 258.695 22.2266C258.398 22.0443 257.93 21.9531 257.289 21.9531H255.883C255.68 21.9531 255.505 21.8828 255.359 21.7422C255.214 21.5964 255.141 21.4219 255.141 21.2188V20.5781C255.141 20.3854 255.211 20.2161 255.352 20.0703C255.492 19.9193 255.659 19.8438 255.852 19.8438H257C257.693 19.8438 258.195 19.7526 258.508 19.5703C258.826 19.388 258.984 19.0781 258.984 18.6406C258.984 18.2031 258.826 17.8958 258.508 17.7188C258.195 17.5365 257.693 17.4453 257 17.4453H256.422C255.422 17.4453 254.76 17.7656 254.438 18.4062C254.203 18.8958 253.852 19.1406 253.383 19.1406H252.453C252.203 19.1406 252.008 19.0495 251.867 18.8672C251.727 18.6849 251.656 18.487 251.656 18.2734C251.656 17.6797 251.883 17.1458 252.336 16.6719C252.789 16.1927 253.354 15.8333 254.031 15.5938C254.708 15.3542 255.414 15.2344 256.148 15.2344H257.227C260.362 15.2344 261.93 16.375 261.93 18.6562C261.93 19.6094 261.573 20.3568 260.859 20.8984C261.677 21.4141 262.086 22.1667 262.086 23.1562C262.086 24.3594 261.701 25.2292 260.93 25.7656C260.164 26.2969 259.042 26.5625 257.562 26.5625H255.898C254.732 26.5625 253.69 26.276 252.773 25.7031C251.857 25.125 251.398 24.3724 251.398 23.4453ZM263.055 20.8984C263.055 19.8516 263.198 18.9531 263.484 18.2031C263.776 17.4531 264.188 16.8672 264.719 16.4453C265.729 15.638 267.047 15.2344 268.672 15.2344H269.219C270.844 15.2344 272.161 15.638 273.172 16.4453C274.281 17.3307 274.836 18.8151 274.836 20.8984C274.836 22.9922 274.281 24.4792 273.172 25.3594C272.161 26.1615 270.844 26.5625 269.219 26.5625H268.672C267.047 26.5625 265.729 26.1615 264.719 25.3594C263.609 24.4792 263.055 22.9922 263.055 20.8984ZM268.945 17.4453C266.982 17.4453 266 18.599 266 20.9062C266 23.2083 266.982 24.3594 268.945 24.3594C270.909 24.3594 271.891 23.2083 271.891 20.9062C271.891 18.599 270.909 17.4453 268.945 17.4453ZM281.883 26.0234V18.4219C281.883 18.2812 281.927 18.1667 282.016 18.0781C282.109 17.9844 282.224 17.9375 282.359 17.9375H285.047C285.354 17.9375 285.589 18.1302 285.75 18.5156L287.656 23.1719L289.562 18.5156C289.724 18.1302 289.958 17.9375 290.266 17.9375H292.953C293.094 17.9375 293.208 17.9844 293.297 18.0781C293.391 18.1667 293.438 18.2812 293.438 18.4219V26.0234C293.438 26.1641 293.391 26.2786 293.297 26.3672C293.208 26.4557 293.094 26.5 292.953 26.5H291.258C291.117 26.5 291.003 26.4557 290.914 26.3672C290.826 26.2734 290.781 26.1589 290.781 26.0234V21.1406L288.781 25.9531C288.62 26.3177 288.372 26.5 288.039 26.5H287.273C286.945 26.5 286.701 26.3177 286.539 25.9531L284.539 21.1406V26.0234C284.539 26.1641 284.492 26.2786 284.398 26.3672C284.31 26.4557 284.195 26.5 284.055 26.5H282.359C282.219 26.5 282.104 26.4557 282.016 26.3672C281.927 26.2786 281.883 26.1641 281.883 26.0234ZM295.352 26.0234V18.4219C295.352 18.2812 295.396 18.1667 295.484 18.0781C295.578 17.9844 295.693 17.9375 295.828 17.9375H297.461C297.602 17.9375 297.716 17.9844 297.805 18.0781C297.898 18.1667 297.945 18.2812 297.945 18.4219V23.5547L300.695 18.5C300.779 18.3385 300.906 18.2057 301.078 18.1016C301.25 17.9922 301.417 17.9375 301.578 17.9375H303.766C303.906 17.9375 304.021 17.9844 304.109 18.0781C304.203 18.1667 304.25 18.2812 304.25 18.4219V26.0234C304.25 26.1641 304.203 26.2786 304.109 26.3672C304.021 26.4557 303.906 26.5 303.766 26.5H302.133C301.992 26.5 301.878 26.4557 301.789 26.3672C301.701 26.2734 301.656 26.1589 301.656 26.0234V20.8984L298.906 25.9375C298.823 26.0885 298.695 26.2214 298.523 26.3359C298.352 26.4453 298.185 26.5 298.023 26.5H295.828C295.688 26.5 295.573 26.4557 295.484 26.3672C295.396 26.2786 295.352 26.1641 295.352 26.0234ZM306.164 26.0234V18.4219C306.164 18.2812 306.208 18.1667 306.297 18.0781C306.391 17.9844 306.505 17.9375 306.641 17.9375H308.391C308.531 17.9375 308.646 17.9844 308.734 18.0781C308.823 18.1667 308.867 18.2812 308.867 18.4219V21.2188H312.289V18.4219C312.289 18.2812 312.333 18.1667 312.422 18.0781C312.516 17.9844 312.633 17.9375 312.773 17.9375H314.516C314.656 17.9375 314.771 17.9844 314.859 18.0781C314.948 18.1667 314.992 18.2812 314.992 18.4219V26.0234C314.992 26.1641 314.948 26.2786 314.859 26.3672C314.771 26.4557 314.656 26.5 314.516 26.5H312.773C312.633 26.5 312.516 26.4557 312.422 26.3672C312.333 26.2734 312.289 26.1589 312.289 26.0234V23.1094H308.867V26.0234C308.867 26.1641 308.82 26.2786 308.727 26.3672C308.638 26.4557 308.526 26.5 308.391 26.5H306.641C306.5 26.5 306.385 26.4557 306.297 26.3672C306.208 26.2786 306.164 26.1641 306.164 26.0234ZM318.578 27.3125L319.602 27.4453C320.336 27.4453 320.849 26.9062 321.141 25.8281C320.255 25.8281 319.516 25.5625 318.922 25.0312C318.328 24.4948 317.818 23.5443 317.391 22.1797L316.227 18.4062C316.211 18.3646 316.203 18.3177 316.203 18.2656C316.203 18.2083 316.234 18.1406 316.297 18.0625C316.365 17.9844 316.464 17.9427 316.594 17.9375H318.227C318.378 17.9375 318.521 17.9896 318.656 18.0938C318.797 18.1927 318.888 18.3177 318.93 18.4688L319.953 21.7812C320.208 22.5938 320.466 23.1562 320.727 23.4688C320.992 23.7812 321.305 23.9375 321.664 23.9375L323.219 18.4688C323.26 18.3177 323.341 18.1927 323.461 18.0938C323.586 17.9896 323.724 17.9375 323.875 17.9375H325.523C325.654 17.9375 325.75 17.9792 325.812 18.0625C325.875 18.1458 325.906 18.2161 325.906 18.2734C325.906 18.3255 325.901 18.3698 325.891 18.4062L323.844 25.7031C323.479 26.9948 323.026 27.9167 322.484 28.4688C321.948 29.0208 321.255 29.2969 320.406 29.2969C319.557 29.2969 318.956 29.2656 318.602 29.2031C318.253 29.1406 318.034 29.0625 317.945 28.9688C317.857 28.8802 317.812 28.776 317.812 28.6562V27.7969C317.812 27.6562 317.857 27.5391 317.945 27.4453C318.034 27.3568 318.148 27.3125 318.289 27.3125H318.578ZM326.219 19.3516V18.4219C326.219 18.2812 326.263 18.1667 326.352 18.0781C326.445 17.9844 326.562 17.9375 326.703 17.9375H334.398C334.539 17.9375 334.654 17.9844 334.742 18.0781C334.831 18.1667 334.875 18.2812 334.875 18.4219V19.3516C334.875 19.487 334.831 19.6016 334.742 19.6953C334.654 19.7839 334.539 19.8281 334.398 19.8281H331.906V26.0234C331.906 26.1589 331.859 26.2734 331.766 26.3672C331.677 26.4557 331.562 26.5 331.422 26.5H329.68C329.539 26.5 329.422 26.4557 329.328 26.3672C329.24 26.2734 329.195 26.1589 329.195 26.0234V19.8281H326.703C326.562 19.8281 326.445 19.7839 326.352 19.6953C326.263 19.6016 326.219 19.487 326.219 19.3516Z" fill="black"/>
<path d="M254.4 53.5C254.347 53.5 254.3 53.48 254.26 53.44C254.22 53.4 254.2 53.3533 254.2 53.3C254.2 53.2667 254.203 53.23 254.21 53.19L256.69 46.72C256.717 46.6533 256.753 46.6 256.8 46.56C256.847 46.52 256.917 46.5 257.01 46.5H257.69C257.777 46.5 257.843 46.52 257.89 46.56C257.943 46.6 257.983 46.6533 258.01 46.72L260.48 53.19C260.493 53.23 260.5 53.2667 260.5 53.3C260.5 53.3533 260.48 53.4 260.44 53.44C260.4 53.48 260.353 53.5 260.3 53.5H259.79C259.71 53.5 259.65 53.48 259.61 53.44C259.577 53.4 259.553 53.3633 259.54 53.33L258.99 51.91H255.71L255.16 53.33C255.153 53.3633 255.13 53.4 255.09 53.44C255.05 53.48 254.99 53.5 254.91 53.5H254.4ZM256 51.05H258.7L257.35 47.5L256 51.05ZM261.669 53.5C261.603 53.5 261.546 53.48 261.499 53.44C261.459 53.3933 261.439 53.3367 261.439 53.27V48.53C261.439 48.4633 261.459 48.41 261.499 48.37C261.546 48.3233 261.603 48.3 261.669 48.3H262.139C262.206 48.3 262.259 48.3233 262.299 48.37C262.346 48.41 262.369 48.4633 262.369 48.53V50.45H263.279L264.629 48.45C264.663 48.4033 264.699 48.3667 264.739 48.34C264.779 48.3133 264.833 48.3 264.899 48.3H265.419C265.479 48.3 265.529 48.3133 265.569 48.34C265.609 48.3667 265.629 48.4067 265.629 48.46C265.629 48.4733 265.623 48.4933 265.609 48.52C265.603 48.54 265.593 48.56 265.579 48.58L264.079 50.79L265.779 53.21C265.813 53.25 265.829 53.2933 265.829 53.34C265.829 53.3933 265.809 53.4333 265.769 53.46C265.736 53.4867 265.689 53.5 265.629 53.5H265.019C264.959 53.5 264.909 53.4867 264.869 53.46C264.829 53.4333 264.793 53.3967 264.759 53.35L263.289 51.26H262.369V53.27C262.369 53.3367 262.346 53.3933 262.299 53.44C262.259 53.48 262.206 53.5 262.139 53.5H261.669ZM268.391 53.5C268.324 53.5 268.267 53.48 268.221 53.44C268.181 53.3933 268.161 53.3367 268.161 53.27V49.1H266.421C266.354 49.1 266.297 49.08 266.251 49.04C266.211 48.9933 266.191 48.9367 266.191 48.87V48.53C266.191 48.4633 266.211 48.41 266.251 48.37C266.297 48.3233 266.354 48.3 266.421 48.3H270.821C270.887 48.3 270.941 48.3233 270.981 48.37C271.027 48.41 271.051 48.4633 271.051 48.53V48.87C271.051 48.9367 271.027 48.9933 270.981 49.04C270.941 49.08 270.887 49.1 270.821 49.1H269.081V53.27C269.081 53.3367 269.061 53.3933 269.021 53.44C268.981 53.48 268.924 53.5 268.851 53.5H268.391ZM272.138 53.5C272.078 53.5 272.024 53.48 271.978 53.44C271.938 53.3933 271.918 53.3433 271.918 53.29V48.53C271.918 48.4633 271.938 48.41 271.978 48.37C272.024 48.3233 272.081 48.3 272.148 48.3H272.628C272.694 48.3 272.748 48.3233 272.788 48.37C272.828 48.41 272.848 48.4633 272.848 48.53V52.77L272.588 52.5L275.618 48.45C275.651 48.41 275.688 48.3767 275.728 48.35C275.768 48.3167 275.818 48.3 275.878 48.3H276.338C276.391 48.3 276.438 48.32 276.478 48.36C276.524 48.4 276.548 48.4467 276.548 48.5V53.27C276.548 53.3367 276.524 53.3933 276.478 53.44C276.438 53.48 276.384 53.5 276.318 53.5H275.848C275.774 53.5 275.718 53.48 275.678 53.44C275.638 53.3933 275.618 53.3367 275.618 53.27V49.28L275.898 49.27L272.848 53.35C272.821 53.3833 272.788 53.4167 272.748 53.45C272.708 53.4833 272.654 53.5 272.588 53.5H272.138ZM278.241 53.5C278.175 53.5 278.118 53.48 278.071 53.44C278.031 53.3933 278.011 53.3367 278.011 53.27V48.53C278.011 48.4633 278.031 48.41 278.071 48.37C278.118 48.3233 278.175 48.3 278.241 48.3H280.321C280.948 48.3 281.418 48.4267 281.731 48.68C282.051 48.9333 282.211 49.2733 282.211 49.7C282.211 50 282.155 50.2267 282.041 50.38C281.928 50.5333 281.768 50.6633 281.561 50.77C281.815 50.8767 282.005 51.05 282.131 51.29C282.265 51.5233 282.331 51.7667 282.331 52.02C282.331 52.5 282.161 52.8667 281.821 53.12C281.481 53.3733 281.008 53.5 280.401 53.5H278.241ZM278.931 52.77H280.321C280.641 52.77 280.898 52.71 281.091 52.59C281.291 52.4633 281.391 52.2733 281.391 52.02C281.391 51.7533 281.301 51.56 281.121 51.44C280.941 51.3133 280.675 51.25 280.321 51.25H278.931V52.77ZM278.931 50.51H280.261C280.581 50.51 280.835 50.44 281.021 50.3C281.215 50.16 281.311 49.9633 281.311 49.71C281.311 49.45 281.215 49.2733 281.021 49.18C280.835 49.08 280.581 49.03 280.261 49.03H278.931V50.51ZM283.847 53.5C283.78 53.5 283.724 53.48 283.677 53.44C283.637 53.3933 283.617 53.3367 283.617 53.27V48.53C283.617 48.4633 283.637 48.41 283.677 48.37C283.724 48.3233 283.78 48.3 283.847 48.3H284.327C284.394 48.3 284.447 48.3233 284.487 48.37C284.527 48.41 284.547 48.4633 284.547 48.53V50.45H287.277V48.53C287.277 48.4633 287.297 48.41 287.337 48.37C287.384 48.3233 287.44 48.3 287.507 48.3H287.977C288.044 48.3 288.097 48.3233 288.137 48.37C288.184 48.41 288.207 48.4633 288.207 48.53V53.27C288.207 53.3367 288.184 53.3933 288.137 53.44C288.097 53.48 288.044 53.5 287.977 53.5H287.507C287.44 53.5 287.384 53.48 287.337 53.44C287.297 53.3933 287.277 53.3367 287.277 53.27V51.25H284.547V53.27C284.547 53.3367 284.527 53.3933 284.487 53.44C284.447 53.48 284.394 53.5 284.327 53.5H283.847ZM291.841 53.6C291.334 53.6 290.911 53.5033 290.571 53.31C290.231 53.1167 289.971 52.85 289.791 52.51C289.611 52.1633 289.511 51.77 289.491 51.33C289.484 51.2167 289.481 51.0733 289.481 50.9C289.481 50.72 289.484 50.5767 289.491 50.47C289.511 50.0233 289.611 49.63 289.791 49.29C289.977 48.95 290.241 48.6833 290.581 48.49C290.921 48.2967 291.341 48.2 291.841 48.2C292.341 48.2 292.761 48.2967 293.101 48.49C293.441 48.6833 293.701 48.95 293.881 49.29C294.067 49.63 294.171 50.0233 294.191 50.47C294.197 50.5767 294.201 50.72 294.201 50.9C294.201 51.0733 294.197 51.2167 294.191 51.33C294.171 51.77 294.071 52.1633 293.891 52.51C293.711 52.85 293.451 53.1167 293.111 53.31C292.771 53.5033 292.347 53.6 291.841 53.6ZM291.841 52.83C292.254 52.83 292.584 52.7 292.831 52.44C293.077 52.1733 293.211 51.7867 293.231 51.28C293.237 51.18 293.241 51.0533 293.241 50.9C293.241 50.7467 293.237 50.62 293.231 50.52C293.211 50.0133 293.077 49.63 292.831 49.37C292.584 49.1033 292.254 48.97 291.841 48.97C291.427 48.97 291.094 49.1033 290.841 49.37C290.594 49.63 290.464 50.0133 290.451 50.52C290.444 50.62 290.441 50.7467 290.441 50.9C290.441 51.0533 290.444 51.18 290.451 51.28C290.464 51.7867 290.594 52.1733 290.841 52.44C291.094 52.7 291.427 52.83 291.841 52.83ZM297.523 53.6C296.836 53.6 296.29 53.39 295.883 52.97C295.476 52.5433 295.253 51.9633 295.213 51.23C295.206 51.1433 295.203 51.0333 295.203 50.9C295.203 50.76 295.206 50.6467 295.213 50.56C295.24 50.0867 295.35 49.6733 295.543 49.32C295.736 48.96 296 48.6833 296.333 48.49C296.673 48.2967 297.07 48.2 297.523 48.2C298.03 48.2 298.453 48.3067 298.793 48.52C299.14 48.7333 299.403 49.0367 299.583 49.43C299.763 49.8233 299.853 50.2833 299.853 50.81V50.98C299.853 51.0533 299.83 51.11 299.783 51.15C299.743 51.19 299.69 51.21 299.623 51.21H296.163C296.163 51.2167 296.163 51.23 296.163 51.25C296.163 51.27 296.163 51.2867 296.163 51.3C296.176 51.5733 296.236 51.83 296.343 52.07C296.45 52.3033 296.603 52.4933 296.803 52.64C297.003 52.7867 297.243 52.86 297.523 52.86C297.763 52.86 297.963 52.8233 298.123 52.75C298.283 52.6767 298.413 52.5967 298.513 52.51C298.613 52.4167 298.68 52.3467 298.713 52.3C298.773 52.2133 298.82 52.1633 298.853 52.15C298.886 52.13 298.94 52.12 299.013 52.12H299.493C299.56 52.12 299.613 52.14 299.653 52.18C299.7 52.2133 299.72 52.2633 299.713 52.33C299.706 52.43 299.653 52.5533 299.553 52.7C299.453 52.84 299.31 52.98 299.123 53.12C298.936 53.26 298.71 53.3767 298.443 53.47C298.176 53.5567 297.87 53.6 297.523 53.6ZM296.163 50.52H298.903V50.49C298.903 50.19 298.846 49.9233 298.733 49.69C298.626 49.4567 298.47 49.2733 298.263 49.14C298.056 49 297.81 48.93 297.523 48.93C297.236 48.93 296.99 49 296.783 49.14C296.583 49.2733 296.43 49.4567 296.323 49.69C296.216 49.9233 296.163 50.19 296.163 50.49V50.52ZM303.73 53.5C303.663 53.5 303.606 53.48 303.56 53.44C303.52 53.3933 303.5 53.3367 303.5 53.27V48.53C303.5 48.4633 303.52 48.41 303.56 48.37C303.606 48.3233 303.663 48.3 303.73 48.3H305.81C306.436 48.3 306.906 48.4267 307.22 48.68C307.54 48.9333 307.7 49.2733 307.7 49.7C307.7 50 307.643 50.2267 307.53 50.38C307.416 50.5333 307.256 50.6633 307.05 50.77C307.303 50.8767 307.493 51.05 307.62 51.29C307.753 51.5233 307.82 51.7667 307.82 52.02C307.82 52.5 307.65 52.8667 307.31 53.12C306.97 53.3733 306.496 53.5 305.89 53.5H303.73ZM304.42 52.77H305.81C306.13 52.77 306.386 52.71 306.58 52.59C306.78 52.4633 306.88 52.2733 306.88 52.02C306.88 51.7533 306.79 51.56 306.61 51.44C306.43 51.3133 306.163 51.25 305.81 51.25H304.42V52.77ZM304.42 50.51H305.75C306.07 50.51 306.323 50.44 306.51 50.3C306.703 50.16 306.8 49.9633 306.8 49.71C306.8 49.45 306.703 49.2733 306.51 49.18C306.323 49.08 306.07 49.03 305.75 49.03H304.42V50.51ZM309.345 55.4C309.279 55.4 309.222 55.3767 309.175 55.33C309.135 55.29 309.115 55.2367 309.115 55.17V48.53C309.115 48.4633 309.135 48.41 309.175 48.37C309.222 48.3233 309.279 48.3 309.345 48.3H309.805C309.872 48.3 309.925 48.3233 309.965 48.37C310.012 48.41 310.035 48.4633 310.035 48.53V48.97C310.195 48.75 310.409 48.5667 310.675 48.42C310.942 48.2733 311.275 48.2 311.675 48.2C312.049 48.2 312.365 48.2633 312.625 48.39C312.892 48.5167 313.109 48.69 313.275 48.91C313.449 49.13 313.579 49.38 313.665 49.66C313.752 49.94 313.799 50.24 313.805 50.56C313.812 50.6667 313.815 50.78 313.815 50.9C313.815 51.02 313.812 51.1333 313.805 51.24C313.799 51.5533 313.752 51.8533 313.665 52.14C313.579 52.42 313.449 52.67 313.275 52.89C313.109 53.1033 312.892 53.2767 312.625 53.41C312.365 53.5367 312.049 53.6 311.675 53.6C311.289 53.6 310.962 53.53 310.695 53.39C310.435 53.2433 310.222 53.0633 310.055 52.85V55.17C310.055 55.2367 310.035 55.29 309.995 55.33C309.955 55.3767 309.899 55.4 309.825 55.4H309.345ZM311.465 52.79C311.812 52.79 312.082 52.7167 312.275 52.57C312.475 52.4167 312.619 52.22 312.705 51.98C312.792 51.7333 312.842 51.47 312.855 51.19C312.862 50.9967 312.862 50.8033 312.855 50.61C312.842 50.33 312.792 50.07 312.705 49.83C312.619 49.5833 312.475 49.3867 312.275 49.24C312.082 49.0867 311.812 49.01 311.465 49.01C311.139 49.01 310.872 49.0867 310.665 49.24C310.465 49.3933 310.315 49.59 310.215 49.83C310.122 50.0633 310.069 50.3033 310.055 50.55C310.049 50.6567 310.045 50.7833 310.045 50.93C310.045 51.0767 310.049 51.2067 310.055 51.32C310.062 51.5533 310.115 51.7833 310.215 52.01C310.322 52.2367 310.479 52.4233 310.685 52.57C310.892 52.7167 311.152 52.79 311.465 52.79ZM317.132 53.6C316.446 53.6 315.899 53.39 315.492 52.97C315.086 52.5433 314.862 51.9633 314.822 51.23C314.816 51.1433 314.812 51.0333 314.812 50.9C314.812 50.76 314.816 50.6467 314.822 50.56C314.849 50.0867 314.959 49.6733 315.152 49.32C315.346 48.96 315.609 48.6833 315.942 48.49C316.282 48.2967 316.679 48.2 317.132 48.2C317.639 48.2 318.062 48.3067 318.402 48.52C318.749 48.7333 319.012 49.0367 319.192 49.43C319.372 49.8233 319.462 50.2833 319.462 50.81V50.98C319.462 51.0533 319.439 51.11 319.392 51.15C319.352 51.19 319.299 51.21 319.232 51.21H315.772C315.772 51.2167 315.772 51.23 315.772 51.25C315.772 51.27 315.772 51.2867 315.772 51.3C315.786 51.5733 315.846 51.83 315.952 52.07C316.059 52.3033 316.212 52.4933 316.412 52.64C316.612 52.7867 316.852 52.86 317.132 52.86C317.372 52.86 317.572 52.8233 317.732 52.75C317.892 52.6767 318.022 52.5967 318.122 52.51C318.222 52.4167 318.289 52.3467 318.322 52.3C318.382 52.2133 318.429 52.1633 318.462 52.15C318.496 52.13 318.549 52.12 318.622 52.12H319.102C319.169 52.12 319.222 52.14 319.262 52.18C319.309 52.2133 319.329 52.2633 319.322 52.33C319.316 52.43 319.262 52.5533 319.162 52.7C319.062 52.84 318.919 52.98 318.732 53.12C318.546 53.26 318.319 53.3767 318.052 53.47C317.786 53.5567 317.479 53.6 317.132 53.6ZM315.772 50.52H318.512V50.49C318.512 50.19 318.456 49.9233 318.342 49.69C318.236 49.4567 318.079 49.2733 317.872 49.14C317.666 49 317.419 48.93 317.132 48.93C316.846 48.93 316.599 49 316.392 49.14C316.192 49.2733 316.039 49.4567 315.932 49.69C315.826 49.9233 315.772 50.19 315.772 50.49V50.52ZM320.878 53.5C320.811 53.5 320.758 53.48 320.718 53.44C320.678 53.4 320.658 53.3467 320.658 53.28V48.49C320.658 48.4367 320.678 48.3933 320.718 48.36C320.765 48.32 320.811 48.3 320.858 48.3H321.368C321.475 48.3 321.558 48.3533 321.618 48.46L323.318 51.64L325.028 48.46C325.088 48.3533 325.171 48.3 325.278 48.3H325.778C325.831 48.3 325.878 48.32 325.918 48.36C325.958 48.3933 325.978 48.4367 325.978 48.49V53.28C325.978 53.3467 325.958 53.4 325.918 53.44C325.878 53.48 325.828 53.5 325.768 53.5H325.278C325.211 53.5 325.158 53.48 325.118 53.44C325.078 53.4 325.058 53.3467 325.058 53.28V49.29L325.408 49.33L323.778 52.41C323.745 52.4767 323.705 52.5367 323.658 52.59C323.611 52.6433 323.541 52.67 323.448 52.67H323.188C323.101 52.67 323.035 52.6433 322.988 52.59C322.941 52.5367 322.898 52.4767 322.858 52.41L321.278 49.48L321.588 49.45V53.28C321.588 53.3467 321.568 53.4 321.528 53.44C321.488 53.48 321.435 53.5 321.368 53.5H320.878ZM330.714 53.5C330.641 53.5 330.584 53.48 330.544 53.44C330.504 53.3933 330.484 53.3367 330.484 53.27V51.64H329.334V51.59C328.708 51.59 328.241 51.4367 327.934 51.13C327.634 50.8167 327.484 50.42 327.484 49.94C327.484 49.38 327.648 48.9667 327.974 48.7C328.308 48.4333 328.808 48.3 329.474 48.3H331.194C331.261 48.3 331.314 48.3233 331.354 48.37C331.401 48.41 331.424 48.4633 331.424 48.53V53.27C331.424 53.3367 331.401 53.3933 331.354 53.44C331.314 53.48 331.261 53.5 331.194 53.5H330.714ZM327.544 53.5C327.484 53.5 327.434 53.48 327.394 53.44C327.354 53.4 327.334 53.3533 327.334 53.3C327.334 53.2733 327.338 53.2467 327.344 53.22C327.358 53.1867 327.378 53.1533 327.404 53.12L328.594 51.36L329.554 51.43L328.284 53.35C328.258 53.3833 328.221 53.4167 328.174 53.45C328.128 53.4833 328.078 53.5 328.024 53.5H327.544ZM329.364 50.89H330.494V49.05H329.444C329.071 49.05 328.794 49.1167 328.614 49.25C328.441 49.3767 328.354 49.6067 328.354 49.94C328.354 50.2133 328.434 50.44 328.594 50.62C328.761 50.8 329.018 50.89 329.364 50.89Z" fill="#999999"/>
</svg>
