<svg width="157" height="147" viewBox="0 0 157 147" fill="none" xmlns="http://www.w3.org/2000/svg">
<path d="M4.74645 0.771967C2.58214 0.359724 0.493439 1.78005 0.0811963 3.94435C-0.33105 6.10865 1.08928 8.19736 3.25358 8.6096L4.74645 0.771967ZM50.2659 13.5032L49.5194 17.4221L50.2659 13.5032ZM71.02 38.5837L67.0307 38.5837L71.02 38.5837ZM71.02 63.292L67.0307 63.292L67.0307 63.292L71.02 63.292ZM83.8645 85.4481L81.8821 88.91L83.8645 85.4481ZM116.718 104.261L114.736 107.722L114.736 107.722L116.718 104.261ZM128.075 117.83L124.318 119.171L128.075 117.83ZM135.163 146.063C137.154 147.006 139.533 146.156 140.476 144.165L155.846 111.718C156.789 109.727 155.939 107.348 153.948 106.405C151.957 105.462 149.578 106.311 148.635 108.302L134.973 137.144L106.131 123.482C104.14 122.539 101.761 123.388 100.818 125.38C99.8749 127.371 100.724 129.749 102.716 130.693L135.163 146.063ZM3.25358 8.6096L49.5194 17.4221L51.0123 9.58443L4.74645 0.771967L3.25358 8.6096ZM67.0307 38.5837L67.0307 63.292L75.0093 63.292L75.0093 38.5837L67.0307 38.5837ZM81.8821 88.91L114.736 107.722L118.7 100.799L85.8468 81.9862L81.8821 88.91ZM124.318 119.171L133.114 143.799L140.627 141.116L131.832 116.488L124.318 119.171ZM114.736 107.722C119.192 110.274 122.591 114.335 124.318 119.171L131.832 116.488C129.465 109.86 124.808 104.296 118.7 100.799L114.736 107.722ZM67.0307 63.292C67.0307 73.8763 72.6971 83.6505 81.8821 88.91L85.8468 81.9862C79.1442 78.1482 75.0093 71.0157 75.0093 63.292L67.0307 63.292ZM49.5194 17.4221C59.6798 19.3574 67.0307 28.2406 67.0307 38.5837L75.0093 38.5837C75.0093 24.4098 64.9358 12.2365 51.0123 9.58443L49.5194 17.4221Z" fill="#7678ED"/>
</svg>
