<svg width="21" height="28" viewBox="0 0 21 28" fill="none" xmlns="http://www.w3.org/2000/svg">
<path d="M11.6499 10.9297C11.8424 10.3522 12.6578 10.3522 12.8503 10.9297L13.9789 14.3194C14.2273 15.0646 14.6459 15.7416 15.2014 16.2969C15.7569 16.8522 16.4341 17.2704 17.1793 17.5185L20.5669 18.6472C21.1444 18.8397 21.1444 19.6552 20.5669 19.8477L17.1775 20.9765C16.4325 21.2249 15.7555 21.6435 15.2003 22.1991C14.6451 22.7547 14.2269 23.4319 13.9789 24.1772L12.8503 27.5652C12.8088 27.6917 12.7284 27.8018 12.6206 27.8799C12.5128 27.958 12.3831 28 12.2501 28C12.117 28 11.9873 27.958 11.8795 27.8799C11.7717 27.8018 11.6914 27.6917 11.6499 27.5652L10.5212 24.1755C10.273 23.4305 9.85471 22.7536 9.29952 22.1983C8.74432 21.6431 8.06748 21.2247 7.32259 20.9765L3.93321 19.8477C3.80676 19.8062 3.69665 19.7258 3.61859 19.618C3.54053 19.5102 3.4985 19.3806 3.4985 19.2475C3.4985 19.1144 3.54053 18.9847 3.61859 18.8769C3.69665 18.7691 3.80676 18.6887 3.93321 18.6472L7.32259 17.5185C8.06748 17.2702 8.74432 16.8518 9.29952 16.2966C9.85471 15.7413 10.273 15.0644 10.5212 14.3194L11.6499 10.9297ZM4.89035 2.00639C4.91544 1.9306 4.96378 1.86465 5.02849 1.81791C5.0932 1.77117 5.17099 1.74601 5.25081 1.74601C5.33064 1.74601 5.40843 1.77117 5.47314 1.81791C5.53785 1.86465 5.58618 1.9306 5.61128 2.00639L6.28845 4.0399C6.59117 4.9464 7.30159 5.6569 8.208 5.95965L10.2413 6.63691C10.3171 6.662 10.383 6.71034 10.4297 6.77506C10.4765 6.83978 10.5016 6.91758 10.5016 6.99741C10.5016 7.07724 10.4765 7.15504 10.4297 7.21976C10.383 7.28448 10.3171 7.33282 10.2413 7.35791L8.208 8.03516C7.76096 8.18412 7.35476 8.43515 7.02158 8.76837C6.6884 9.10159 6.43739 9.50784 6.28845 9.95492L5.61128 11.9884C5.58618 12.0642 5.53785 12.1302 5.47314 12.1769C5.40843 12.2236 5.33064 12.2488 5.25081 12.2488C5.17099 12.2488 5.0932 12.2236 5.02849 12.1769C4.96378 12.1302 4.91544 12.0642 4.89035 11.9884L4.21318 9.95492C4.06424 9.50784 3.81323 9.10159 3.48005 8.76837C3.14687 8.43515 2.74066 8.18412 2.29363 8.03516L0.260349 7.35791C0.184573 7.33282 0.118631 7.28448 0.0718934 7.21976C0.0251559 7.15504 0 7.07724 0 6.99741C0 6.91758 0.0251559 6.83978 0.0718934 6.77506C0.118631 6.71034 0.184573 6.662 0.260349 6.63691L2.29363 5.95965C2.74066 5.8107 3.14687 5.55967 3.48005 5.22645C3.81323 4.89323 4.06424 4.48698 4.21318 4.0399L4.89035 2.00639ZM17.2598 0.17063C17.277 0.120801 17.3094 0.0775928 17.3524 0.0470126C17.3953 0.0164324 17.4468 0 17.4995 0C17.5522 0 17.6037 0.0164324 17.6466 0.0470126C17.6896 0.0775928 17.722 0.120801 17.7392 0.17063L18.1907 1.52514C18.3919 2.13064 18.8661 2.60489 19.4715 2.80614L20.8259 3.25764C20.8757 3.27492 20.9189 3.30729 20.9495 3.35026C20.9801 3.39323 20.9965 3.44466 20.9965 3.49739C20.9965 3.55013 20.9801 3.60156 20.9495 3.64453C20.9189 3.6875 20.8757 3.71987 20.8259 3.73715L19.4715 4.18865C19.1732 4.28791 18.9021 4.45538 18.6797 4.67774C18.4574 4.90011 18.2899 5.17126 18.1907 5.46965L17.7392 6.82416C17.722 6.87399 17.6896 6.9172 17.6466 6.94778C17.6037 6.97836 17.5522 6.99479 17.4995 6.99479C17.4468 6.99479 17.3953 6.97836 17.3524 6.94778C17.3094 6.9172 17.277 6.87399 17.2598 6.82416L16.8083 5.46965C16.7091 5.17126 16.5416 4.90011 16.3193 4.67774C16.0969 4.45538 15.8258 4.28791 15.5275 4.18865L14.1749 3.73715C14.125 3.71987 14.0818 3.6875 14.0513 3.64453C14.0207 3.60156 14.0042 3.55013 14.0042 3.49739C14.0042 3.44466 14.0207 3.39323 14.0513 3.35026C14.0818 3.30729 14.125 3.27492 14.1749 3.25764L15.5292 2.80614C16.1346 2.60489 16.6088 2.13064 16.8101 1.52514L17.2598 0.17238V0.17063Z" fill="#FAFAFA"/>
</svg>
